CrimsonProS-W0.ufo
<glyph name="quotesingle" format="2">
  <advance width="209.0"/>
  <unicode hex="0027"/>
  <note>
quotesingle
</note>
  <outline>
    <contour>
      <point x="104.0" y="698.0" type="curve" smooth="yes"/>
      <point x="79.0" y="698.0"/>
      <point x="59.0" y="682.0"/>
      <point x="59.0" y="636.0" type="curve" smooth="yes"/>
      <point x="59.0" y="602.0"/>
      <point x="81.0" y="522.0"/>
      <point x="90.0" y="476.0" type="curve"/>
      <point x="119.0" y="476.0" type="line"/>
      <point x="128.0" y="522.0"/>
      <point x="150.0" y="602.0"/>
      <point x="150.0" y="636.0" type="curve" smooth="yes"/>
      <point x="150.0" y="682.0"/>
      <point x="131.0" y="698.0"/>
    </contour>
  </outline>
</glyph>
<glyph name="parenleft" format="2">
  <advance width="346.0"/>
  <unicode hex="0028"/>
  <note>
parenleft
</note>
  <outline>
    <contour>
      <point x="322.0" y="729.0" type="line"/>
      <point x="176.0" y="604.0"/>
      <point x="104.0" y="437.0"/>
      <point x="104.0" y="250.0" type="curve" smooth="yes"/>
      <point x="104.0" y="62.0"/>
      <point x="176.0" y="-101.0"/>
      <point x="322.0" y="-229.0" type="curve"/>
      <point x="346.0" y="-206.0" type="line"/>
      <point x="229.0" y="-90.0"/>
      <point x="170.0" y="69.0"/>
      <point x="170.0" y="250.0" type="curve" smooth="yes"/>
      <point x="170.0" y="431.0"/>
      <point x="229.0" y="590.0"/>
      <point x="346.0" y="706.0" type="curve"/>
    </contour>
  </outline>
</glyph>
<glyph name="parenright" format="2">
  <advance width="346.0"/>
  <unicode hex="0029"/>
  <note>
parenright
</note>
  <outline>
    <contour>
      <point x="23.0" y="729.0" type="curve"/>
      <point x="0.0" y="706.0" type="line"/>
      <point x="117.0" y="590.0"/>
      <point x="176.0" y="431.0"/>
      <point x="176.0" y="250.0" type="curve" smooth="yes"/>
      <point x="176.0" y="69.0"/>
      <point x="117.0" y="-90.0"/>
      <point x="0.0" y="-206.0" type="curve"/>
      <point x="23.0" y="-229.0" type="line"/>
      <point x="170.0" y="-101.0"/>
      <point x="242.0" y="62.0"/>
      <point x="242.0" y="250.0" type="curve" smooth="yes"/>
      <point x="242.0" y="437.0"/>
      <point x="170.0" y="604.0"/>
    </contour>
  </outline>
</glyph>
<glyph name="three" format="2">
  <advance width="481.0"/>
  <unicode hex="0033"/>
  <note>
    three
  </note>
  <outline>
    <contour>
      <point x="195.49967694278348" y="-8.4805501824585" type="curve" smooth="yes"/>
      <point x="313.24814286382934" y="-8.4805501824585"/>
      <point x="419.0" y="74.0"/>
      <point x="419.0" y="177.0" type="curve" smooth="yes"/>
      <point x="419.0" y="266.0"/>
      <point x="352.0" y="321.0"/>
      <point x="248.0" y="326.0" type="curve"/>
      <point x="255.0" y="317.0" type="line"/>
      <point x="330.0" y="346.0"/>
      <point x="377.0" y="401.0"/>
      <point x="377.0" y="467.0" type="curve" smooth="yes"/>
      <point x="377.0" y="544.0"/>
      <point x="316.0" y="596.0"/>
      <point x="225.0" y="596.0" type="curve" smooth="yes"/>
      <point x="153.0" y="596.0"/>
      <point x="87.0" y="557.0"/>
      <point x="58.0" y="494.0" type="curve"/>
      <point x="78.0" y="479.0" type="line"/>
      <point x="114.0" y="523.0"/>
      <point x="158.0" y="542.0"/>
      <point x="205.0" y="542.0" type="curve" smooth="yes"/>
      <point x="274.0" y="542.0"/>
      <point x="317.0" y="508.0"/>
      <point x="317.0" y="447.0" type="curve" smooth="yes"/>
      <point x="317.0" y="374.0"/>
      <point x="267.0" y="332.0"/>
      <point x="158.0" y="320.0" type="curve"/>
      <point x="162.0" y="283.0" type="line"/>
      <point x="184.0" y="286.0"/>
      <point x="204.0" y="287.0"/>
      <point x="224.0" y="287.0" type="curve" smooth="yes"/>
      <point x="307.0" y="287.0"/>
      <point x="359.0" y="239.0"/>
      <point x="359.0" y="163.0" type="curve" smooth="yes"/>
      <point x="359.0" y="70.0"/>
      <point x="271.65213685645267" y="26.939068354416804"/>
      <point x="210.80166223331753" y="26.939068354416804" type="curve" smooth="yes"/>
      <point x="196.10843117309014" y="26.939068354416804"/>
      <point x="176.2527135241346" y="29.32175447229156"/>
      <point x="165.92774034667764" y="34.08712670804084" type="curve"/>
      <point x="158.3825676400745" y="45.206328591455986"/>
      <point x="138.40687450382802" y="82.95334283407942"/>
      <point x="132.41998225771795" y="95.29285750793997" type="curve"/>
      <point x="125.3673525723807" y="99.86924154549138"/>
      <point x="114.30207909024648" y="102.11378544689478"/>
      <point x="109.99655184015933" y="102.11378544689478" type="curve" smooth="yes"/>
      <point x="84.66407967374971" y="102.11378544689478"/>
      <point x="66.32821267148825" y="85.05828088296641"/>
      <point x="66.32821267148825" y="59.59385520578576" type="curve" smooth="yes"/>
      <point x="66.32821267148825" y="15.077473036169522"/>
      <point x="115.49967694279201" y="-8.4805501824585"/>
    </contour>
  </outline>
</glyph>
<glyph name="five" format="2">
  <advance width="474.7723005157625"/>
  <unicode hex="0035"/>
  <note>
    five
  </note>
  <outline>
    <contour>
      <point x="182.7420094194017" y="-7.939920430276288" type="curve" smooth="yes"/>
      <point x="297.26110886765105" y="-7.939920430276288"/>
      <point x="407.5714559783014" y="48.580490133819694"/>
      <point x="407.5714559783014" y="174.4738744991987" type="curve" smooth="yes"/>
      <point x="407.5714559783014" y="260.3765818107689"/>
      <point x="334.71070844923315" y="360.87803527409164"/>
      <point x="126.96255979935245" y="362.3009677990908" type="curve"/>
      <point x="143.77230051576248" y="523" type="line"/>
      <point x="380.244549249207" y="523.0" type="line"/>
      <point x="387.244549249207" y="587.0" type="line"/>
      <point x="105.77230051576248" y="587" type="line"/>
      <point x="77.67375816951949" y="302.0239650039862" type="line"/>
      <point x="282.81319719023486" y="302.0239650039862"/>
      <point x="346.1452985887406" y="228.10714370455003"/>
      <point x="346.1452985887406" y="151.031631933761" type="curve" smooth="yes"/>
      <point x="346.1452985887406" y="79.88500568380186"/>
      <point x="283.9791602540794" y="27.325151753146656"/>
      <point x="200.16782233687695" y="27.325151753146656" type="curve" smooth="yes"/>
      <point x="185.82175707589954" y="27.325151753146656"/>
      <point x="165.14454259496893" y="28.428247178088668"/>
      <point x="154.3893622017847" y="34.21949815903395" type="curve"/>
      <point x="148.0465635083683" y="43.32003541480549"/>
      <point x="125.98465500952852" y="85.2376615626008"/>
      <point x="121.09732944624398" y="95.28808654540558" type="curve"/>
      <point x="116.69260813137157" y="98.35224050357783"/>
      <point x="105.3837040643175" y="102.18243295129287"/>
      <point x="97.15862664802398" y="102.18243295129287" type="curve" smooth="yes"/>
      <point x="74.76813812589126" y="102.18243295129287"/>
      <point x="55.0" y="85.30065787878766"/>
      <point x="55.0" y="60.816706500053215" type="curve" smooth="yes"/>
      <point x="55.0" y="14.612638837944814"/>
      <point x="102.70228140313424" y="-7.939920430276288"/>
    </contour>
  </outline>
</glyph>
<glyph name="nine" format="2">
  <advance width="503.0"/>
  <unicode hex="0039"/>
  <note>
nine
</note>
  <outline>
    <contour>
      <point x="380.0" y="351.0" type="curve"/>
      <point x="376.0" y="380.0" type="line"/>
      <point x="341.0" y="327.0"/>
      <point x="299.0" y="302.0"/>
      <point x="250.0" y="302.0" type="curve" smooth="yes"/>
      <point x="176.0" y="302.0"/>
      <point x="124.0" y="355.0"/>
      <point x="124.0" y="428.0" type="curve" smooth="yes"/>
      <point x="124.0" y="505.0"/>
      <point x="171.0" y="557.0"/>
      <point x="234.0" y="557.0" type="curve" smooth="yes"/>
      <point x="319.0" y="557.0"/>
      <point x="366.0" y="487.0"/>
      <point x="366.0" y="372.0" type="curve" smooth="yes"/>
      <point x="366.0" y="193.0"/>
      <point x="267.0" y="69.0"/>
      <point x="92.0" y="22.0" type="curve"/>
      <point x="107.0" y="-15.0" type="line"/>
      <point x="300.0" y="27.0"/>
      <point x="435.0" y="179.0"/>
      <point x="435.0" y="381.0" type="curve" smooth="yes"/>
      <point x="435.0" y="517.0"/>
      <point x="358.0" y="596.0"/>
      <point x="242.0" y="596.0" type="curve" smooth="yes"/>
      <point x="134.0" y="596.0"/>
      <point x="56.0" y="505.0"/>
      <point x="56.0" y="413.0" type="curve" smooth="yes"/>
      <point x="56.0" y="319.0"/>
      <point x="130.0" y="251.0"/>
      <point x="227.0" y="251.0" type="curve" smooth="yes"/>
      <point x="293.0" y="251.0"/>
      <point x="350.0" y="288.0"/>
    </contour>
  </outline>
</glyph>
<glyph name="equal" format="2">
  <advance width="540.0"/>
  <unicode hex="003D"/>
  <outline>
    <contour>
      <point x="487.0" y="369.0" type="line"/>
      <point x="53.0" y="369.0" type="line"/>
      <point x="53.0" y="315.0" type="line"/>
      <point x="487.0" y="315.0" type="line"/>
    </contour>
    <contour>
      <point x="487.0" y="191.0" type="line"/>
      <point x="53.0" y="191.0" type="line"/>
      <point x="53.0" y="137.0" type="line"/>
      <point x="487.0" y="137.0" type="line"/>
    </contour>
  </outline>
</glyph>
<glyph name="greater" format="2">
  <advance width="540.0"/>
  <unicode hex="003E"/>
  <outline>
    <contour>
      <point x="487.0" y="226.0" type="line"/>
      <point x="487.0" y="281.0" type="line"/>
      <point x="53.0" y="478.0" type="line"/>
      <point x="53.0" y="418.0" type="line"/>
      <point x="459.0" y="236.0" type="line"/>
      <point x="459.0" y="270.0" type="line"/>
      <point x="53.0" y="87.0" type="line"/>
      <point x="53.0" y="29.0" type="line"/>
    </contour>
  </outline>
</glyph>
<glyph name="D" format="2">
  <advance width="671.0"/>
  <unicode hex="0044"/>
  <note>
D
</note>
  <anchor x="318.0" y="0.0" name="bottom"/>
  <anchor x="338.0" y="294.0" name="center"/>
  <anchor x="195.0" y="294.0" name="stroke"/>
  <anchor x="328.0" y="587.0" name="top"/>
  <outline>
    <contour>
      <point x="56.0" y="587.0" type="line"/>
      <point x="54.0" y="555.0" type="line"/>
      <point x="113.0" y="542.0" type="line"/>
      <point x="115.0" y="532.0"/>
      <point x="118.0" y="474.0"/>
      <point x="118.0" y="397.0" type="curve" smooth="yes"/>
      <point x="118.0" y="189.0" type="line" smooth="yes"/>
      <point x="118.0" y="121.0"/>
      <point x="115.0" y="59.0"/>
      <point x="113.0" y="45.0" type="curve"/>
      <point x="54.0" y="32.0" type="line"/>
      <point x="56.0" y="0.0" type="line"/>
      <point x="294.0" y="0.0" type="line" smooth="yes"/>
      <point x="482.0" y="0.0"/>
      <point x="612.0" y="123.0"/>
      <point x="612.0" y="300.0" type="curve" smooth="yes"/>
      <point x="612.0" y="481.0"/>
      <point x="489.0" y="587.0"/>
      <point x="281.0" y="587.0" type="curve" smooth="yes"/>
    </contour>
    <contour>
      <point x="181.0" y="539.0" type="curve"/>
      <point x="213.0" y="545.0"/>
      <point x="242.0" y="547.0"/>
      <point x="269.0" y="547.0" type="curve" smooth="yes"/>
      <point x="453.0" y="547.0"/>
      <point x="537.0" y="439.0"/>
      <point x="537.0" y="271.0" type="curve" smooth="yes"/>
      <point x="537.0" y="128.0"/>
      <point x="454.0" y="44.0"/>
      <point x="300.0" y="44.0" type="curve" smooth="yes"/>
      <point x="264.0" y="44.0"/>
      <point x="232.0" y="47.0"/>
      <point x="183.0" y="53.0" type="curve"/>
      <point x="181.0" y="81.0"/>
      <point x="179.0" y="124.0"/>
      <point x="179.0" y="189.0" type="curve" smooth="yes"/>
      <point x="179.0" y="397.0" type="line" smooth="yes"/>
      <point x="179.0" y="497.0"/>
      <point x="180.0" y="517.0"/>
    </contour>
  </outline>
</glyph>
<glyph name="E" format="2">
  <advance width="545.0"/>
  <unicode hex="0045"/>
  <note>
E
</note>
  <anchor x="275.0" y="0.0" name="bottom"/>
  <anchor x="473.0" y="0.0" name="ogonek"/>
  <anchor x="275.0" y="587.0" name="top"/>
  <anchor x="25.0" y="587.0" name="topleft"/>
  <outline>
    <contour>
      <point x="471.0" y="-5.0" type="curve"/>
      <point x="509.0" y="134.0" type="line"/>
      <point x="471.0" y="142.0" type="line"/>
      <point x="420.0" y="49.0" type="line"/>
      <point x="412.0" y="46.0"/>
      <point x="389.0" y="45.0"/>
      <point x="349.0" y="45.0" type="curve" smooth="yes"/>
      <point x="231.0" y="45.0" type="line" smooth="yes"/>
      <point x="212.0" y="45.0"/>
      <point x="195.0" y="46.0"/>
      <point x="179.0" y="48.0" type="curve"/>
      <point x="178.0" y="57.0"/>
      <point x="177.0" y="106.0"/>
      <point x="177.0" y="134.0" type="curve" smooth="yes"/>
      <point x="177.0" y="433.0" type="line" smooth="yes"/>
      <point x="177.0" y="470.0"/>
      <point x="178.0" y="535.0"/>
      <point x="179.0" y="541.0" type="curve"/>
      <point x="198.0" y="543.0"/>
      <point x="213.0" y="544.0"/>
      <point x="238.0" y="544.0" type="curve" smooth="yes"/>
      <point x="370.0" y="544.0" type="line" smooth="yes"/>
      <point x="385.0" y="544.0"/>
      <point x="398.0" y="543.0"/>
      <point x="405.0" y="542.0" type="curve"/>
      <point x="437.0" y="460.0" type="line"/>
      <point x="476.0" y="466.0" type="line"/>
      <point x="459.0" y="591.0" type="line"/>
      <point x="417.0" y="587.0"/>
      <point x="406.0" y="587.0"/>
      <point x="384.0" y="587.0" type="curve" smooth="yes"/>
      <point x="56.0" y="587.0" type="line"/>
      <point x="54.0" y="555.0" type="line"/>
      <point x="114.0" y="542.0" type="line"/>
      <point x="116.0" y="534.0"/>
      <point x="117.0" y="489.0"/>
      <point x="117.0" y="397.0" type="curve" smooth="yes"/>
      <point x="117.0" y="189.0" type="line" smooth="yes"/>
      <point x="117.0" y="98.0"/>
      <point x="116.0" y="55.0"/>
      <point x="114.0" y="45.0" type="curve"/>
      <point x="54.0" y="32.0" type="line"/>
      <point x="56.0" y="0.0" type="line"/>
      <point x="399.0" y="0.0" type="line"/>
      <point x="417.0" y="0.0"/>
      <point x="429.0" y="0.0"/>
    </contour>
    <contour>
      <point x="368.0" y="207.0" type="line"/>
      <point x="404.0" y="207.0" type="line"/>
      <point x="404.0" y="398.0" type="line"/>
      <point x="368.0" y="398.0" type="line"/>
      <point x="355.0" y="327.0" type="line"/>
      <point x="348.0" y="324.0"/>
      <point x="334.0" y="324.0"/>
      <point x="314.0" y="324.0" type="curve" smooth="yes"/>
      <point x="227.0" y="324.0" type="line" smooth="yes"/>
      <point x="212.0" y="324.0"/>
      <point x="192.0" y="324.0"/>
      <point x="165.0" y="325.0" type="curve"/>
      <point x="165.0" y="278.0" type="line"/>
      <point x="192.0" y="279.0"/>
      <point x="212.0" y="280.0"/>
      <point x="227.0" y="280.0" type="curve" smooth="yes"/>
      <point x="314.0" y="280.0" type="line" smooth="yes"/>
      <point x="334.0" y="280.0"/>
      <point x="348.0" y="279.0"/>
      <point x="355.0" y="276.0" type="curve"/>
    </contour>
  </outline>
</glyph>
<glyph name="G" format="2">
  <advance width="644.0"/>
  <unicode hex="0047"/>
  <note>
G
</note>
  <anchor x="353.0" y="0.0" name="bottom"/>
  <anchor x="353.0" y="587.0" name="top"/>
  <outline>
    <contour>
      <point x="377.0" y="-9.0" type="curve" smooth="yes"/>
      <point x="438.0" y="-9.0"/>
      <point x="519.0" y="13.0"/>
      <point x="568.0" y="46.0" type="curve"/>
      <point x="566.0" y="75.0"/>
      <point x="565.0" y="104.0"/>
      <point x="565.0" y="164.0" type="curve" smooth="yes"/>
      <point x="565.0" y="203.0"/>
      <point x="565.0" y="226.0"/>
      <point x="565.0" y="232.0" type="curve"/>
      <point x="607.0" y="242.0" type="line"/>
      <point x="605.0" y="274.0" type="line"/>
      <point x="437.0" y="274.0" type="line"/>
      <point x="435.0" y="240.0" type="line"/>
      <point x="501.0" y="231.0" type="line"/>
      <point x="503.0" y="214.0"/>
      <point x="505.0" y="178.0"/>
      <point x="505.0" y="128.0" type="curve" smooth="yes"/>
      <point x="505.0" y="23.0" type="line"/>
      <point x="532.0" y="80.0" type="line"/>
      <point x="489.0" y="48.0"/>
      <point x="428.0" y="35.0"/>
      <point x="381.0" y="35.0" type="curve" smooth="yes"/>
      <point x="239.0" y="35.0"/>
      <point x="133.0" y="128.0"/>
      <point x="133.0" y="306.0" type="curve" smooth="yes"/>
      <point x="133.0" y="432.0"/>
      <point x="198.0" y="552.0"/>
      <point x="370.0" y="552.0" type="curve" smooth="yes"/>
      <point x="413.0" y="552.0"/>
      <point x="467.0" y="543.0"/>
      <point x="491.0" y="523.0" type="curve"/>
      <point x="519.0" y="436.0" type="line"/>
      <point x="555.0" y="441.0" type="line"/>
      <point x="547.0" y="566.0" type="line"/>
      <point x="499.0" y="586.0"/>
      <point x="430.0" y="596.0"/>
      <point x="378.0" y="596.0" type="curve" smooth="yes"/>
      <point x="165.0" y="596.0"/>
      <point x="55.0" y="446.0"/>
      <point x="55.0" y="292.0" type="curve" smooth="yes"/>
      <point x="55.0" y="89.0"/>
      <point x="200.0" y="-9.0"/>
    </contour>
  </outline>
</glyph>
<glyph name="J" format="2">
  <advance width="295.0"/>
  <unicode hex="004A"/>
  <note>
    J
  </note>
  <anchor x="148.0" y="587.0" name="top"/>
  <outline>
    <contour>
      <point x="183.0" y="542.0" type="curve"/>
      <point x="243.0" y="555.0" type="line"/>
      <point x="241.0" y="587.0" type="line"/>
      <point x="49.0" y="587.0" type="line"/>
      <point x="47.0" y="555.0" type="line"/>
      <point x="114.0" y="541.0" type="line"/>
      <point x="116.0" y="530.0"/>
      <point x="117.0" y="488.0"/>
      <point x="117.0" y="395.0" type="curve"/>
      <point x="116.0" y="-1.0" type="line"/>
      <point x="116.0" y="-116.94928679392842"/>
      <point x="64.56267792716653" y="-183.2797305724671"/>
      <point x="0.6889172515363953" y="-203.75208976337422" type="curve"/>
      <point x="16.247910236625785" y="-232.413392630644" type="line"/>
      <point x="122.70417802934253" y="-200.47651229282906"/>
      <point x="179.0" y="-111.21702622047428"/>
      <point x="179.0" y="22.0" type="curve"/>
      <point x="178.0" y="396.0" type="line"/>
      <point x="178.0" y="499.0"/>
      <point x="180.0" y="535.0"/>
    </contour>
  </outline>
</glyph>
<glyph name="K" format="2">
  <advance width="559.0"/>
  <unicode hex="004B"/>
  <note>
    K
  </note>
  <anchor x="309.0" y="0.0" name="bottom"/>
  <anchor x="309.0" y="587.0" name="top"/>
  <outline>
    <contour>
      <point x="369.74652777777806" y="0.0" type="line"/>
      <point x="571.746527777778" y="0.0" type="line"/>
      <point x="571.746527777778" y="33.0" type="line"/>
      <point x="514.0" y="47.0" type="line"/>
      <point x="496.0" y="63.0"/>
      <point x="473.0" y="90.0"/>
      <point x="446.0" y="119.0" type="curve" smooth="yes"/>
      <point x="256.0" y="323.0" type="line"/>
      <point x="251.0" y="300.0" type="line"/>
      <point x="502.0" y="543.0" type="line"/>
      <point x="555.0" y="553.0" type="line"/>
      <point x="554.0" y="587.0" type="line"/>
      <point x="376.0" y="587.0" type="line"/>
      <point x="375.0" y="555.0" type="line"/>
      <point x="435.0" y="541.0" type="line"/>
      <point x="229.0" y="327.0" type="line"/>
      <point x="171.0" y="311.0" type="line"/>
      <point x="171.0" y="279.0" type="line"/>
      <point x="214.0" y="279.0" type="line"/>
      <point x="382.0" y="93.0" type="line" smooth="yes"/>
      <point x="398.0" y="76.0"/>
      <point x="413.0" y="56.0"/>
      <point x="424.0" y="42.0" type="curve"/>
      <point x="367.74652777777806" y="32.0" type="line"/>
    </contour>
    <contour>
      <point x="56.0" y="0.0" type="line"/>
      <point x="245.0" y="0.0" type="line"/>
      <point x="247.0" y="32.0" type="line"/>
      <point x="182.0" y="45.0" type="line"/>
      <point x="181.0" y="55.0"/>
      <point x="179.0" y="99.0"/>
      <point x="179.0" y="189.0" type="curve" smooth="yes"/>
      <point x="179.0" y="397.0" type="line" smooth="yes"/>
      <point x="179.0" y="501.0"/>
      <point x="181.0" y="536.0"/>
      <point x="184.0" y="542.0" type="curve"/>
      <point x="244.0" y="555.0" type="line"/>
      <point x="242.0" y="587.0" type="line"/>
      <point x="56.0" y="587.0" type="line"/>
      <point x="54.0" y="555.0" type="line"/>
      <point x="114.0" y="542.0" type="line"/>
      <point x="117.0" y="534.0"/>
      <point x="118.0" y="490.0"/>
      <point x="118.0" y="397.0" type="curve" smooth="yes"/>
      <point x="118.0" y="189.0" type="line" smooth="yes"/>
      <point x="118.0" y="99.0"/>
      <point x="116.0" y="55.0"/>
      <point x="114.0" y="45.0" type="curve"/>
      <point x="54.0" y="32.0" type="line"/>
    </contour>
  </outline>
</glyph>
<glyph name="R" format="2">
  <advance width="512.7095685952727"/>
  <unicode hex="0052"/>
  <note>
    R
  </note>
  <anchor x="301.0" y="0.0" name="bottom"/>
  <anchor x="253.0" y="587.0" name="top"/>
  <outline>
    <contour>
      <point x="58.0" y="0.0" type="line"/>
      <point x="240.0" y="0.0" type="line"/>
      <point x="242.0" y="32.0" type="line"/>
      <point x="182.0" y="47.0" type="line"/>
      <point x="180.0" y="65.0"/>
      <point x="178.0" y="85.0"/>
      <point x="178.0" y="189.0" type="curve" smooth="yes"/>
      <point x="178.0" y="415.0" type="line" smooth="yes"/>
      <point x="178.0" y="557.0"/>
      <point x="178.0" y="543.0"/>
      <point x="180.0" y="549.0" type="curve"/>
      <point x="247.0" y="549.0" type="line" smooth="yes"/>
      <point x="327.0" y="549.0"/>
      <point x="370.0" y="510.0"/>
      <point x="370.0" y="435.0" type="curve" smooth="yes"/>
      <point x="370.0" y="359.0"/>
      <point x="320.0" y="316.0"/>
      <point x="230.0" y="316.0" type="curve" smooth="yes"/>
      <point x="164.0" y="316.0" type="line"/>
      <point x="164.0" y="277.0" type="line"/>
      <point x="230.0" y="277.0" type="line" smooth="yes"/>
      <point x="350.0" y="277.0"/>
      <point x="435.0" y="347.0"/>
      <point x="435.0" y="446.0" type="curve" smooth="yes"/>
      <point x="435.0" y="536.0"/>
      <point x="368.0" y="587.0"/>
      <point x="256.0" y="587.0" type="curve" smooth="yes"/>
      <point x="57.0" y="587.0" type="line"/>
      <point x="55.0" y="555.0" type="line"/>
      <point x="115.0" y="542.0" type="line"/>
      <point x="117.0" y="534.0"/>
      <point x="118.0" y="492.0"/>
      <point x="118.0" y="397.0" type="curve" smooth="yes"/>
      <point x="118.0" y="189.0" type="line" smooth="yes"/>
      <point x="118.0" y="121.0"/>
      <point x="116.0" y="65.0"/>
      <point x="116.0" y="47.0" type="curve"/>
      <point x="56.0" y="32.0" type="line"/>
    </contour>
    <contour>
      <point x="420.70255177578633" y="-0.0024842671768965374" type="curve"/>
      <point x="509.3644667712681" y="0.00015387341659334197" type="line"/>
      <point x="512.7095685952727" y="37.49051492183503" type="line"/>
      <point x="480.2705113059387" y="39.8757397225213"/>
      <point x="458.5423750806552" y="45.75824782775115"/>
      <point x="433.80677991267385" y="80.49536813048599" type="curve" smooth="yes"/>
      <point x="273.6944728190033" y="305.3470620432613" type="line"/>
      <point x="215.6944728190033" y="292.3470620432613" type="line"/>
      <point x="378.4067250581222" y="52.11175213205797" type="line" smooth="yes"/>
      <point x="394.3429847237897" y="28.582778579526654"/>
      <point x="402.37952896088836" y="17.405420689965467"/>
    </contour>
  </outline>
</glyph>
<glyph name="V" format="2">
  <advance width="574.0"/>
  <unicode hex="0056"/>
  <note>
V
</note>
  <anchor x="283.0" y="0.0" name="bottom"/>
  <anchor x="283.0" y="587.0" name="top"/>
  <outline>
    <contour>
      <point x="268.0" y="-3.0" type="line"/>
      <point x="304.0" y="-3.0" type="line"/>
      <point x="519.0" y="542.0" type="line"/>
      <point x="569.0" y="554.0" type="line"/>
      <point x="567.0" y="587.0" type="line"/>
      <point x="393.0" y="587.0" type="line"/>
      <point x="391.0" y="555.0" type="line"/>
      <point x="461.0" y="542.0" type="line"/>
      <point x="295.0" y="83.0" type="line"/>
      <point x="305.0" y="83.0" type="line"/>
      <point x="130.0" y="542.0" type="line"/>
      <point x="190.0" y="555.0" type="line"/>
      <point x="188.0" y="587.0" type="line"/>
      <point x="8.0" y="587.0" type="line"/>
      <point x="6.0" y="554.0" type="line"/>
      <point x="56.0" y="542.0" type="line"/>
    </contour>
  </outline>
</glyph>
<glyph name="X" format="2">
  <advance width="572.0"/>
  <unicode hex="0058"/>
  <note>
X
</note>
  <anchor x="284.0" y="0.0" name="bottom"/>
  <anchor x="284.0" y="587.0" name="top"/>
  <outline>
    <contour>
      <point x="564.0" y="0.0" type="line"/>
      <point x="566.0" y="32.0" type="line"/>
      <point x="516.0" y="47.0" type="line"/>
      <point x="317.0" y="319.0" type="line"/>
      <point x="290.0" y="355.0" type="line"/>
      <point x="156.0" y="542.0" type="line"/>
      <point x="222.0" y="555.0" type="line"/>
      <point x="221.0" y="587.0" type="line"/>
      <point x="23.0" y="587.0" type="line"/>
      <point x="21.0" y="555.0" type="line"/>
      <point x="72.0" y="542.0" type="line"/>
      <point x="250.0" y="299.0" type="line"/>
      <point x="277.0" y="263.0" type="line"/>
      <point x="433.0" y="47.0" type="line"/>
      <point x="373.0" y="32.0" type="line"/>
      <point x="375.0" y="0.0" type="line"/>
    </contour>
    <contour>
      <point x="425.0" y="542.0" type="line"/>
      <point x="290.0" y="355.0" type="line"/>
      <point x="250.0" y="299.0" type="line"/>
      <point x="65.0" y="47.0" type="line"/>
      <point x="14.0" y="32.0" type="line"/>
      <point x="15.0" y="0.0" type="line"/>
      <point x="192.0" y="0.0" type="line"/>
      <point x="194.0" y="32.0" type="line"/>
      <point x="121.0" y="47.0" type="line"/>
      <point x="277.0" y="263.0" type="line"/>
      <point x="317.0" y="319.0" type="line"/>
      <point x="482.0" y="542.0" type="line"/>
      <point x="533.0" y="555.0" type="line"/>
      <point x="531.0" y="587.0" type="line"/>
      <point x="348.0" y="587.0" type="line"/>
      <point x="346.0" y="555.0" type="line"/>
    </contour>
  </outline>
</glyph>
<glyph name="Z" format="2">
  <advance width="526.0"/>
  <unicode hex="005A"/>
  <note>
Z
</note>
  <anchor x="265.0" y="0.0" name="bottom"/>
  <anchor x="265.0" y="587.0" name="top"/>
  <outline>
    <contour>
      <point x="477.0" y="-4.0" type="curve"/>
      <point x="498.0" y="154.0" type="line"/>
      <point x="466.0" y="157.0" type="line"/>
      <point x="423.0" y="48.0" type="line"/>
      <point x="415.0" y="46.0"/>
      <point x="402.0" y="45.0"/>
      <point x="390.0" y="45.0" type="curve" smooth="yes"/>
      <point x="138.0" y="45.0" type="line"/>
      <point x="138.0" y="14.0" type="line"/>
      <point x="472.0" y="561.0" type="line"/>
      <point x="472.0" y="589.0" type="line"/>
      <point x="447.0" y="588.0"/>
      <point x="422.0" y="587.0"/>
      <point x="397.0" y="587.0" type="curve" smooth="yes"/>
      <point x="129.0" y="587.0" type="line" smooth="yes"/>
      <point x="104.0" y="587.0"/>
      <point x="82.0" y="587.0"/>
      <point x="53.0" y="588.0" type="curve"/>
      <point x="54.0" y="441.0" type="line"/>
      <point x="87.0" y="441.0" type="line"/>
      <point x="98.0" y="541.0" type="line"/>
      <point x="114.0" y="544.0"/>
      <point x="132.0" y="544.0"/>
      <point x="156.0" y="544.0" type="curve" smooth="yes"/>
      <point x="407.0" y="544.0" type="line"/>
      <point x="403.0" y="572.0" type="line"/>
      <point x="70.0" y="27.0" type="line"/>
      <point x="70.0" y="-2.0" type="line"/>
      <point x="94.0" y="-1.0"/>
      <point x="112.0" y="0.0"/>
      <point x="137.0" y="0.0" type="curve" smooth="yes"/>
      <point x="398.0" y="0.0" type="line" smooth="yes"/>
      <point x="427.0" y="0.0"/>
      <point x="443.0" y="-1.0"/>
    </contour>
  </outline>
</glyph>
<glyph name="bracketleft" format="2">
  <advance width="314.0"/>
  <unicode hex="005B"/>
  <note>
bracketleft
</note>
  <outline>
    <contour>
      <point x="262.0" y="-220.0" type="line"/>
      <point x="262.0" y="-179.0" type="line"/>
      <point x="170.0" y="-179.0" type="line"/>
      <point x="170.0" y="681.0" type="line"/>
      <point x="262.0" y="681.0" type="line"/>
      <point x="262.0" y="722.0" type="line"/>
      <point x="112.0" y="722.0" type="line"/>
      <point x="112.0" y="-220.0" type="line"/>
    </contour>
  </outline>
</glyph>
<glyph name="asciicircum" format="2">
  <advance width="540.0"/>
  <unicode hex="005E"/>
  <outline>
    <contour>
      <point x="297.0" y="560.0" type="line"/>
      <point x="246.0" y="560.0" type="line"/>
      <point x="47.0" y="126.0" type="line"/>
      <point x="102.0" y="126.0" type="line"/>
      <point x="287.0" y="531.0" type="line"/>
      <point x="255.0" y="531.0" type="line"/>
      <point x="439.0" y="126.0" type="line"/>
      <point x="494.0" y="126.0" type="line"/>
    </contour>
  </outline>
</glyph>
<glyph name="c" format="2">
  <advance width="408.0"/>
  <unicode hex="0063"/>
  <note>
    c
  </note>
  <anchor x="241.0" y="0.0" name="bottom"/>
  <anchor x="241.0" y="425.0" name="top"/>
  <outline>
    <contour>
      <point x="259.0" y="433.0" type="curve" smooth="yes"/>
      <point x="139.0" y="433.0"/>
      <point x="44.0" y="338.0"/>
      <point x="44.0" y="206.0" type="curve" smooth="yes"/>
      <point x="44.0" y="67.0"/>
      <point x="135.0" y="-8.0"/>
      <point x="242.0" y="-8.0" type="curve" smooth="yes"/>
      <point x="314.0" y="-8.0"/>
      <point x="365.0" y="22.0"/>
      <point x="403.0" y="85.0" type="curve"/>
      <point x="379.0" y="105.0" type="line"/>
      <point x="346.0" y="63.0"/>
      <point x="313.0" y="45.0"/>
      <point x="256.0" y="45.0" type="curve" smooth="yes"/>
      <point x="172.0" y="45.0"/>
      <point x="108.0" y="106.0"/>
      <point x="108.0" y="216.0" type="curve" smooth="yes"/>
      <point x="108.0" y="356.0"/>
      <point x="193.7445405248443" y="402.7237719730904"/>
      <point x="275.95479233476794" y="397.5553474978103" type="curve" smooth="yes"/>
      <point x="290.47040190281587" y="396.6427747941199"/>
      <point x="298.6278868418658" y="391.6999424079088"/>
      <point x="301.0862563458172" y="382.2761926427636" type="curve" smooth="yes"/>
      <point x="304.5749428666313" y="368.9028943129763"/>
      <point x="304.5426402136609" y="349.069065389089"/>
      <point x="304.9625747022774" y="334.01602910483575" type="curve"/>
      <point x="313.87810692213543" y="329.1706311592609"/>
      <point x="326.4050757440955" y="326.1858660247865"/>
      <point x="335.93435837039306" y="326.1858660247865" type="curve" smooth="yes"/>
      <point x="370.12348627437086" y="326.1858660247865"/>
      <point x="384.5724629480758" y="345.7365083576324"/>
      <point x="384.5724629480758" y="366.06026085157237" type="curve" smooth="yes"/>
      <point x="384.5724629480758" y="396.6131867861707"/>
      <point x="346.0" y="433.0"/>
    </contour>
  </outline>
</glyph>
<glyph name="d" format="2">
  <advance width="530.0"/>
  <unicode hex="0064"/>
  <note>
d
</note>
  <anchor x="277.0" y="0.0" name="bottom"/>
  <anchor x="266.0" y="213.0" name="center"/>
  <anchor x="343.0" y="519.0" name="stroke"/>
  <anchor x="266.0" y="660.0" name="top"/>
  <anchor x="469.0" y="688.0" name="topright"/>
  <outline>
    <contour>
      <point x="385.0" y="-10.0" type="line"/>
      <point x="497.0" y="15.0" type="line"/>
      <point x="497.0" y="43.0" type="line"/>
      <point x="434.0" y="60.0" type="line"/>
      <point x="432.0" y="78.0"/>
      <point x="428.0" y="134.0"/>
      <point x="428.0" y="202.0" type="curve"/>
      <point x="429.0" y="432.0" type="line" smooth="yes"/>
      <point x="429.0" y="519.0"/>
      <point x="429.0" y="597.0"/>
      <point x="432.0" y="680.0" type="curve"/>
      <point x="417.0" y="692.0" type="line"/>
      <point x="292.0" y="655.0" type="line"/>
      <point x="294.0" y="627.0" type="line"/>
      <point x="374.0" y="612.0" type="line"/>
      <point x="375.0" y="590.0"/>
      <point x="377.0" y="444.0"/>
      <point x="377.0" y="397.0" type="curve"/>
      <point x="346.0" y="423.0"/>
      <point x="297.0" y="434.0"/>
      <point x="254.0" y="434.0" type="curve" smooth="yes"/>
      <point x="139.0" y="434.0"/>
      <point x="43.0" y="335.0"/>
      <point x="43.0" y="198.0" type="curve" smooth="yes"/>
      <point x="43.0" y="79.0"/>
      <point x="124.0" y="-7.0"/>
      <point x="241.0" y="-7.0" type="curve" smooth="yes"/>
      <point x="290.0" y="-7.0"/>
      <point x="331.0" y="13.0"/>
      <point x="374.0" y="68.0" type="curve"/>
      <point x="377.0" y="68.0" type="line"/>
      <point x="376.0" y="2.0" type="line"/>
    </contour>
    <contour>
      <point x="255.0" y="46.0" type="curve" smooth="yes"/>
      <point x="172.0" y="46.0"/>
      <point x="106.0" y="110.0"/>
      <point x="106.0" y="219.0" type="curve" smooth="yes"/>
      <point x="106.0" y="321.0"/>
      <point x="159.0" y="397.0"/>
      <point x="253.0" y="397.0" type="curve" smooth="yes"/>
      <point x="299.0" y="397.0"/>
      <point x="348.0" y="376.0"/>
      <point x="376.0" y="321.0" type="curve"/>
      <point x="376.0" y="110.0" type="line"/>
      <point x="334.0" y="60.0"/>
      <point x="302.0" y="46.0"/>
    </contour>
  </outline>
</glyph>
<glyph name="e" format="2">
  <advance width="439.0"/>
  <unicode hex="0065"/>
  <note>
    e
  </note>
  <anchor x="234.0" y="0.0" name="bottom"/>
  <anchor x="350.0" y="0.0" name="ogonek"/>
  <anchor x="234.0" y="425.0" name="top"/>
  <outline>
    <contour>
      <point x="243.0" y="-8.0" type="curve" smooth="yes"/>
      <point x="308.0" y="-8.0"/>
      <point x="361.0" y="22.0"/>
      <point x="399.0" y="86.0" type="curve"/>
      <point x="376.0" y="106.0" type="line"/>
      <point x="342.0" y="63.0"/>
      <point x="307.0" y="45.0"/>
      <point x="258.0" y="45.0" type="curve" smooth="yes"/>
      <point x="173.0" y="45.0"/>
      <point x="106.70229575272447" y="104.1801027631916"/>
      <point x="106.70229575272447" y="222.1801027631916" type="curve" smooth="yes"/>
      <point x="106.70229575272447" y="230.1801027631916" type="line" smooth="yes"/>
      <point x="106.70229575272447" y="339.1801027631916"/>
      <point x="173.0" y="399.0"/>
      <point x="234.0" y="399.0" type="curve" smooth="yes"/>
      <point x="300.0" y="399.0"/>
      <point x="332.69943382180736" y="341.53571756479005"/>
      <point x="332.69943382180736" y="270.4828903117452" type="curve" smooth="yes"/>
      <point x="332.69943382180736" y="255.48289031174522" type="line"/>
      <point x="341.69943382180736" y="263.4828903117452" type="line"/>
      <point x="84.0" y="263.0" type="line"/>
      <point x="84.0" y="223.0" type="line"/>
      <point x="399.0" y="223.0" type="line"/>
      <point x="399.0" y="238.0" type="line" smooth="yes"/>
      <point x="399.0" y="368.0"/>
      <point x="338.0" y="432.0"/>
      <point x="242.0" y="433.0" type="curve" smooth="yes"/>
      <point x="138.0" y="435.0"/>
      <point x="45.0" y="348.0"/>
      <point x="45.0" y="204.0" type="curve" smooth="yes"/>
      <point x="45.0" y="68.0"/>
      <point x="134.0" y="-8.0"/>
    </contour>
  </outline>
</glyph>
<glyph name="h" format="2">
  <advance width="533.0"/>
  <unicode hex="0068"/>
  <note>
h
</note>
  <anchor x="269.0" y="0.0" name="bottom"/>
  <anchor x="194.0" y="519.0" name="stroke"/>
  <anchor x="127.0" y="660.0" name="top"/>
  <outline>
    <contour>
      <point x="38.0" y="0.0" type="line"/>
      <point x="217.0" y="0.0" type="line"/>
      <point x="219.0" y="31.0" type="line"/>
      <point x="157.0" y="45.0" type="line"/>
      <point x="155.0" y="55.0"/>
      <point x="153.0" y="99.0"/>
      <point x="153.0" y="165.0" type="curve" smooth="yes"/>
      <point x="153.0" y="318.0" type="line"/>
      <point x="183.0" y="362.0"/>
      <point x="226.0" y="388.0"/>
      <point x="275.0" y="388.0" type="curve" smooth="yes"/>
      <point x="330.0" y="388.0"/>
      <point x="384.0" y="351.0"/>
      <point x="384.0" y="260.0" type="curve" smooth="yes"/>
      <point x="384.0" y="141.0" type="line" smooth="yes"/>
      <point x="384.0" y="77.0"/>
      <point x="382.0" y="60.0"/>
      <point x="381.0" y="45.0" type="curve"/>
      <point x="323.0" y="31.0" type="line"/>
      <point x="325.0" y="0.0" type="line"/>
      <point x="502.0" y="0.0" type="line"/>
      <point x="503.0" y="31.0" type="line"/>
      <point x="441.0" y="45.0" type="line"/>
      <point x="438.0" y="61.0"/>
      <point x="435.0" y="101.0"/>
      <point x="435.0" y="151.0" type="curve" smooth="yes"/>
      <point x="435.0" y="262.0" type="line" smooth="yes"/>
      <point x="435.0" y="383.0"/>
      <point x="363.0" y="433.0"/>
      <point x="295.0" y="433.0" type="curve" smooth="yes"/>
      <point x="244.0" y="433.0"/>
      <point x="204.0" y="415.0"/>
      <point x="155.0" y="364.0" type="curve"/>
      <point x="152.0" y="365.0" type="line"/>
      <point x="153.0" y="519.0"/>
      <point x="154.0" y="596.0"/>
      <point x="156.0" y="680.0" type="curve"/>
      <point x="141.0" y="692.0" type="line"/>
      <point x="23.0" y="655.0" type="line"/>
      <point x="25.0" y="629.0" type="line"/>
      <point x="99.0" y="619.0" type="line"/>
      <point x="100.0" y="605.0"/>
      <point x="102.0" y="454.0"/>
      <point x="102.0" y="364.0" type="curve" smooth="yes"/>
      <point x="102.0" y="240.0" type="line" smooth="yes"/>
      <point x="102.0" y="108.0"/>
      <point x="101.0" y="69.0"/>
      <point x="98.0" y="45.0" type="curve"/>
      <point x="36.0" y="31.0" type="line"/>
    </contour>
  </outline>
</glyph>
<glyph name="l" format="2">
  <advance width="255.0"/>
  <unicode hex="006C"/>
  <note>
l
</note>
  <anchor x="128.0" y="0.0" name="bottom"/>
  <anchor x="128.0" y="355.0" name="center"/>
  <anchor x="255.0" y="355.0" name="dotacc"/>
  <anchor x="128.0" y="660.0" name="top"/>
  <anchor x="194.0" y="688.0" name="topright"/>
  <outline>
    <contour>
      <point x="35.0" y="0.0" type="line"/>
      <point x="221.0" y="0.0" type="line"/>
      <point x="223.0" y="32.0" type="line"/>
      <point x="158.0" y="45.0" type="line"/>
      <point x="156.0" y="68.0"/>
      <point x="153.0" y="137.0"/>
      <point x="153.0" y="209.0" type="curve"/>
      <point x="154.0" y="377.0" type="line" smooth="yes"/>
      <point x="154.0" y="519.0"/>
      <point x="156.0" y="594.0"/>
      <point x="158.0" y="680.0" type="curve"/>
      <point x="143.0" y="692.0" type="line"/>
      <point x="23.0" y="655.0" type="line"/>
      <point x="25.0" y="629.0" type="line"/>
      <point x="99.0" y="619.0" type="line"/>
      <point x="100.0" y="608.0"/>
      <point x="102.0" y="468.0"/>
      <point x="102.0" y="364.0" type="curve" smooth="yes"/>
      <point x="102.0" y="240.0" type="line" smooth="yes"/>
      <point x="102.0" y="108.0"/>
      <point x="101.0" y="68.0"/>
      <point x="98.0" y="45.0" type="curve"/>
      <point x="33.0" y="32.0" type="line"/>
    </contour>
  </outline>
</glyph>
<glyph name="m" format="2">
  <advance width="802.0"/>
  <unicode hex="006D"/>
  <note>
m
</note>
  <anchor x="403.0" y="0.0" name="bottom"/>
  <anchor x="403.0" y="425.0" name="top"/>
  <outline>
    <contour>
      <point x="39.0" y="0.0" type="line"/>
      <point x="216.0" y="0.0" type="line"/>
      <point x="218.0" y="31.0" type="line"/>
      <point x="158.0" y="45.0" type="line"/>
      <point x="156.0" y="62.0"/>
      <point x="154.0" y="97.0"/>
      <point x="154.0" y="165.0" type="curve" smooth="yes"/>
      <point x="154.0" y="318.0" type="line"/>
      <point x="186.0" y="367.0"/>
      <point x="226.0" y="388.0"/>
      <point x="272.0" y="388.0" type="curve" smooth="yes"/>
      <point x="324.0" y="388.0"/>
      <point x="377.0" y="351.0"/>
      <point x="377.0" y="259.0" type="curve"/>
      <point x="377.0" y="141.0" type="line"/>
      <point x="377.0" y="77.0"/>
      <point x="376.0" y="60.0"/>
      <point x="374.0" y="45.0" type="curve"/>
      <point x="318.0" y="31.0" type="line"/>
      <point x="320.0" y="0.0" type="line"/>
      <point x="494.0" y="0.0" type="line"/>
      <point x="496.0" y="31.0" type="line"/>
      <point x="434.0" y="45.0" type="line"/>
      <point x="431.0" y="61.0"/>
      <point x="428.0" y="101.0"/>
      <point x="428.0" y="151.0" type="curve"/>
      <point x="428.0" y="258.0" type="line"/>
      <point x="428.0" y="379.0"/>
      <point x="350.0" y="433.0"/>
      <point x="285.0" y="433.0" type="curve" smooth="yes"/>
      <point x="240.0" y="433.0"/>
      <point x="196.0" y="414.0"/>
      <point x="155.0" y="362.0" type="curve"/>
      <point x="152.0" y="363.0" type="line"/>
      <point x="157.0" y="417.0" type="line"/>
      <point x="145.0" y="431.0" type="line"/>
      <point x="32.0" y="399.0" type="line"/>
      <point x="32.0" y="371.0" type="line"/>
      <point x="96.0" y="357.0" type="line"/>
      <point x="99.0" y="338.0"/>
      <point x="105.0" y="279.0"/>
      <point x="103.0" y="235.0" type="curve"/>
      <point x="102.0" y="155.0" type="line" smooth="yes"/>
      <point x="101.0" y="74.0"/>
      <point x="100.0" y="62.0"/>
      <point x="99.0" y="45.0" type="curve"/>
      <point x="37.0" y="31.0" type="line"/>
    </contour>
    <contour>
      <point x="591.0" y="0.0" type="line"/>
      <point x="767.0" y="0.0" type="line"/>
      <point x="769.0" y="31.0" type="line"/>
      <point x="707.0" y="45.0" type="line"/>
      <point x="704.0" y="61.0"/>
      <point x="702.0" y="101.0"/>
      <point x="702.0" y="151.0" type="curve"/>
      <point x="703.0" y="269.0" type="line"/>
      <point x="703.0" y="376.0"/>
      <point x="633.0" y="433.0"/>
      <point x="558.0" y="433.0" type="curve" smooth="yes"/>
      <point x="501.0" y="433.0"/>
      <point x="449.0" y="407.0"/>
      <point x="403.0" y="341.0" type="curve"/>
      <point x="417.0" y="307.0" type="line"/>
      <point x="452.0" y="361.0"/>
      <point x="494.0" y="388.0"/>
      <point x="546.0" y="388.0" type="curve" smooth="yes"/>
      <point x="592.0" y="388.0"/>
      <point x="652.0" y="354.0"/>
      <point x="652.0" y="261.0" type="curve"/>
      <point x="651.0" y="141.0" type="line"/>
      <point x="651.0" y="76.0"/>
      <point x="648.0" y="60.0"/>
      <point x="647.0" y="45.0" type="curve"/>
      <point x="589.0" y="31.0" type="line"/>
    </contour>
  </outline>
</glyph>
<glyph name="n" format="2">
  <advance width="533.0"/>
  <unicode hex="006E"/>
  <note>
n
</note>
  <anchor x="269.0" y="0.0" name="bottom"/>
  <anchor x="269.0" y="425.0" name="top"/>
  <outline>
    <contour>
      <point x="38.0" y="0.0" type="line"/>
      <point x="217.0" y="0.0" type="line"/>
      <point x="219.0" y="31.0" type="line"/>
      <point x="157.0" y="45.0" type="line"/>
      <point x="155.0" y="62.0"/>
      <point x="153.0" y="96.0"/>
      <point x="153.0" y="165.0" type="curve" smooth="yes"/>
      <point x="153.0" y="318.0" type="line"/>
      <point x="183.0" y="362.0"/>
      <point x="226.0" y="388.0"/>
      <point x="275.0" y="388.0" type="curve" smooth="yes"/>
      <point x="321.0" y="388.0"/>
      <point x="384.0" y="358.0"/>
      <point x="384.0" y="261.0" type="curve" smooth="yes"/>
      <point x="384.0" y="141.0" type="line" smooth="yes"/>
      <point x="384.0" y="77.0"/>
      <point x="383.0" y="60.0"/>
      <point x="381.0" y="45.0" type="curve"/>
      <point x="323.0" y="31.0" type="line"/>
      <point x="325.0" y="0.0" type="line"/>
      <point x="501.0" y="0.0" type="line"/>
      <point x="503.0" y="31.0" type="line"/>
      <point x="441.0" y="45.0" type="line"/>
      <point x="438.0" y="59.0"/>
      <point x="435.0" y="101.0"/>
      <point x="435.0" y="151.0" type="curve" smooth="yes"/>
      <point x="435.0" y="266.0" type="line" smooth="yes"/>
      <point x="435.0" y="384.0"/>
      <point x="363.0" y="433.0"/>
      <point x="295.0" y="433.0" type="curve" smooth="yes"/>
      <point x="244.0" y="433.0"/>
      <point x="204.0" y="415.0"/>
      <point x="154.0" y="365.0" type="curve"/>
      <point x="151.0" y="366.0" type="line"/>
      <point x="156.0" y="417.0" type="line"/>
      <point x="144.0" y="431.0" type="line"/>
      <point x="31.0" y="399.0" type="line"/>
      <point x="31.0" y="371.0" type="line"/>
      <point x="95.0" y="357.0" type="line"/>
      <point x="98.0" y="338.0"/>
      <point x="102.0" y="279.0"/>
      <point x="102.0" y="234.0" type="curve"/>
      <point x="101.0" y="155.0" type="line" smooth="yes"/>
      <point x="100.0" y="83.0"/>
      <point x="99.0" y="62.0"/>
      <point x="98.0" y="45.0" type="curve"/>
      <point x="36.0" y="31.0" type="line"/>
    </contour>
  </outline>
</glyph>
<glyph name="r" format="2">
  <advance width="342.0"/>
  <unicode hex="0072"/>
  <note>
    r
  </note>
  <anchor x="129.0" y="0.0" name="bottom"/>
  <anchor x="160.0" y="425.0" name="top"/>
  <outline>
    <contour>
      <point x="276.14162261876436" y="432.0" type="curve" smooth="yes"/>
      <point x="243.14162261876436" y="432.0"/>
      <point x="195.0" y="410.0"/>
      <point x="153.0" y="332.0" type="curve"/>
      <point x="150.0" y="333.0" type="line"/>
      <point x="155.0" y="419.0" type="line"/>
      <point x="146.0" y="431.0" type="line"/>
      <point x="32.0" y="399.0" type="line"/>
      <point x="32.0" y="371.0" type="line"/>
      <point x="96.0" y="357.0" type="line"/>
      <point x="99.0" y="338.0"/>
      <point x="103.0" y="281.0"/>
      <point x="103.0" y="235.0" type="curve"/>
      <point x="103.0" y="155.0" type="line" smooth="yes"/>
      <point x="103.0" y="86.0"/>
      <point x="101.0" y="56.0"/>
      <point x="100.0" y="45.0" type="curve"/>
      <point x="38.0" y="31.0" type="line"/>
      <point x="40.0" y="0.0" type="line"/>
      <point x="245.0" y="0.0" type="line"/>
      <point x="247.0" y="33.0" type="line"/>
      <point x="160.0" y="45.0" type="line"/>
      <point x="158.0" y="73.0"/>
      <point x="155.0" y="136.0"/>
      <point x="154.0" y="176.0" type="curve" smooth="yes"/>
      <point x="153.0913523873951" y="266.30841648345495" type="line"/>
      <point x="170.809656915789" y="311.7918038611317"/>
      <point x="195.56960840949955" y="345.2669803984322"/>
      <point x="220.28113793193234" y="361.74133341338757" type="curve" smooth="yes"/>
      <point x="229.21358868387944" y="367.69630058135135"/>
      <point x="238.05302344297087" y="366.8616132262723"/>
      <point x="245.74639602367688" y="363.7871681015192" type="curve" smooth="yes"/>
      <point x="254.55688515991733" y="360.2662980165926"/>
      <point x="270.9227983854819" y="348.5813387108137"/>
      <point x="283.32778645320445" y="336.1763506430909" type="curve"/>
      <point x="304.0358995470258" y="341.00824369831594"/>
      <point x="326.0239044390437" y="356.57366765995266"/>
      <point x="326.0239044390437" y="384.2305031474789" type="curve" smooth="yes"/>
      <point x="326.0239044390437" y="415.43072687550233"/>
      <point x="305.14162261876436" y="432.0"/>
    </contour>
  </outline>
</glyph>
<glyph name="t" format="2">
  <advance width="325.0"/>
  <unicode hex="0074"/>
  <note>
    t
  </note>
  <guideline x="299.0" y="403.0" angle="270.0"/>
  <anchor x="191.0" y="0.0" name="bottom"/>
  <anchor x="117.0" y="270.0" name="stroke"/>
  <anchor x="158.0" y="481.0" name="top"/>
  <anchor x="213.0" y="688.0" name="topright"/>
  <outline>
    <contour>
      <point x="331.0" y="51.0" type="curve"/>
      <point x="316.0" y="75.0" type="line"/>
      <point x="295.0" y="53.0"/>
      <point x="267.0" y="39.0"/>
      <point x="233.0" y="39.0" type="curve" smooth="yes"/>
      <point x="176.0" y="39.0"/>
      <point x="143.0" y="77.0"/>
      <point x="143.0" y="152.0" type="curve"/>
      <point x="144.0" y="403.0" type="line"/>
      <point x="146.0" y="506.0" type="line"/>
      <point x="134.0" y="506.0" type="line"/>
      <point x="23.0" y="396.0" type="line"/>
      <point x="23.0" y="381.0" type="line"/>
      <point x="93.0" y="381.0" type="line"/>
      <point x="91.0" y="134.0" type="line"/>
      <point x="91.0" y="40.0"/>
      <point x="146.0" y="-7.0"/>
      <point x="221.0" y="-7.0" type="curve" smooth="yes"/>
      <point x="261.0" y="-7.0"/>
      <point x="303.0" y="14.0"/>
    </contour>
    <contour>
      <point x="119.0" y="381.0" type="line"/>
      <point x="299.0" y="381.0" type="line"/>
      <point x="299.0" y="424.0" type="line"/>
      <point x="119.0" y="424.0" type="line"/>
    </contour>
  </outline>
</glyph>
<glyph name="u" format="2">
  <advance width="525.0"/>
  <unicode hex="0075"/>
  <note>
u
</note>
  <anchor x="262.0" y="0.0" name="bottom"/>
  <anchor x="417.0" y="0.0" name="ogonek"/>
  <anchor x="262.0" y="425.0" name="top"/>
  <anchor x="410.0" y="425.0" name="topright"/>
  <outline>
    <contour>
      <point x="431.0" y="60.0" type="line"/>
      <point x="429.0" y="78.0"/>
      <point x="424.0" y="120.0"/>
      <point x="424.0" y="214.0" type="curve" smooth="yes"/>
      <point x="424.0" y="281.0" type="line" smooth="yes"/>
      <point x="424.0" y="330.0"/>
      <point x="424.0" y="355.0"/>
      <point x="426.0" y="419.0" type="curve"/>
      <point x="416.0" y="431.0" type="line"/>
      <point x="296.0" y="399.0" type="line"/>
      <point x="296.0" y="371.0" type="line"/>
      <point x="369.0" y="357.0" type="line"/>
      <point x="372.0" y="330.0"/>
      <point x="374.0" y="277.0"/>
      <point x="374.0" y="234.0" type="curve" smooth="yes"/>
      <point x="374.0" y="111.0" type="line"/>
      <point x="342.0" y="60.0"/>
      <point x="297.0" y="42.0"/>
      <point x="257.0" y="42.0" type="curve" smooth="yes"/>
      <point x="192.0" y="42.0"/>
      <point x="145.0" y="74.0"/>
      <point x="145.0" y="165.0" type="curve"/>
      <point x="145.0" y="286.0" type="line"/>
      <point x="145.0" y="334.0"/>
      <point x="146.0" y="374.0"/>
      <point x="148.0" y="417.0" type="curve"/>
      <point x="136.0" y="431.0" type="line"/>
      <point x="22.0" y="399.0" type="line"/>
      <point x="22.0" y="371.0" type="line"/>
      <point x="90.0" y="357.0" type="line"/>
      <point x="92.0" y="321.0"/>
      <point x="94.0" y="282.0"/>
      <point x="94.0" y="239.0" type="curve" smooth="yes"/>
      <point x="94.0" y="151.0" type="line" smooth="yes"/>
      <point x="94.0" y="45.0"/>
      <point x="163.0" y="-7.0"/>
      <point x="249.0" y="-7.0" type="curve" smooth="yes"/>
      <point x="296.0" y="-7.0"/>
      <point x="332.0" y="11.0"/>
      <point x="372.0" y="63.0" type="curve"/>
      <point x="375.0" y="62.0" type="line"/>
      <point x="374.0" y="2.0" type="line"/>
      <point x="383.0" y="-10.0" type="line"/>
      <point x="494.0" y="15.0" type="line"/>
      <point x="494.0" y="43.0" type="line"/>
    </contour>
  </outline>
</glyph>
<glyph name="v" format="2">
  <advance width="461.0"/>
  <unicode hex="0076"/>
  <note>
v
</note>
  <anchor x="231.0" y="0.0" name="bottom"/>
  <anchor x="231.0" y="425.0" name="top"/>
  <outline>
    <contour>
      <point x="218.0" y="-4.0" type="line"/>
      <point x="242.0" y="-4.0" type="line"/>
      <point x="417.0" y="380.0" type="line"/>
      <point x="464.0" y="394.0" type="line"/>
      <point x="462.0" y="425.0" type="line"/>
      <point x="305.0" y="425.0" type="line"/>
      <point x="303.0" y="394.0" type="line"/>
      <point x="365.0" y="380.0" type="line"/>
      <point x="229.0" y="46.0" type="line"/>
      <point x="254.0" y="47.0" type="line"/>
      <point x="105.0" y="380.0" type="line"/>
      <point x="167.0" y="394.0" type="line"/>
      <point x="165.0" y="425.0" type="line"/>
      <point x="0.0" y="425.0" type="line"/>
      <point x="-2.0" y="394.0" type="line"/>
      <point x="45.0" y="380.0" type="line"/>
    </contour>
  </outline>
</glyph>
<glyph name="y" format="2">
  <advance width="461.0"/>
  <unicode hex="0079"/>
  <note>
    y
  </note>
  <anchor x="301.0" y="0.0" name="bottom"/>
  <anchor x="234.0" y="425.0" name="top"/>
  <outline>
    <contour>
      <point x="217.0" y="-4.0" type="line"/>
      <point x="253.0" y="47.0" type="line"/>
      <point x="105.0" y="380.0" type="line"/>
      <point x="167.0" y="394.0" type="line"/>
      <point x="165.0" y="425.0" type="line"/>
      <point x="0.0" y="425.0" type="line"/>
      <point x="-2.0" y="394.0" type="line"/>
      <point x="45.0" y="380.0" type="line"/>
    </contour>
    <contour>
      <point x="76.45983083553915" y="-227.44285692647304" type="curve" smooth="yes"/>
      <point x="127.0309288162698" y="-227.44285692647304"/>
      <point x="154.06123979731143" y="-180.36155330829644"/>
      <point x="177.71994295980858" y="-131.6917727571872" type="curve" smooth="yes"/>
      <point x="250.0" y="17.0" type="line"/>
      <point x="417.0" y="380.0" type="line"/>
      <point x="464.0" y="394.0" type="line"/>
      <point x="462.0" y="425.0" type="line"/>
      <point x="305.0" y="425.0" type="line"/>
      <point x="303.0" y="394.0" type="line"/>
      <point x="365.0" y="380.0" type="line"/>
      <point x="224.0" y="46.0" type="line"/>
      <point x="217.49945407180417" y="38.133502530985425" type="line"/>
      <point x="141.80474248989117" y="-109.85342966786925" type="line" smooth="yes"/>
      <point x="126.83054856294395" y="-139.12872479864748"/>
      <point x="106.716815243484" y="-155.2301430939924"/>
      <point x="78.48839817437033" y="-155.2301430939924" type="curve" smooth="yes"/>
      <point x="63.19515329709907" y="-155.2301430939924"/>
      <point x="43.66440880083405" y="-144.67741904140576"/>
      <point x="34.16695715350579" y="-139.4010570151122" type="curve"/>
      <point x="26.101695133758994" y="-146.9622401586248"/>
      <point x="18.337871074625696" y="-161.56177752554458"/>
      <point x="18.337871074625696" y="-176.33559119916595" type="curve" smooth="yes"/>
      <point x="18.337871074625696" y="-199.33559119916595"/>
      <point x="31.00113993772969" y="-227.44285692647304"/>
    </contour>
  </outline>
</glyph>
<glyph name="z" format="2">
  <advance width="417.0"/>
  <unicode hex="007A"/>
  <note>
z
</note>
  <anchor x="214.0" y="0.0" name="bottom"/>
  <anchor x="214.0" y="425.0" name="top"/>
  <outline>
    <contour>
      <point x="114.0" y="17.0" type="line"/>
      <point x="369.0" y="403.0" type="line"/>
      <point x="369.0" y="427.0" type="line"/>
      <point x="341.0" y="426.0"/>
      <point x="313.0" y="425.0"/>
      <point x="285.0" y="425.0" type="curve" smooth="yes"/>
      <point x="131.0" y="425.0" type="line" smooth="yes"/>
      <point x="105.0" y="425.0"/>
      <point x="81.0" y="425.0"/>
      <point x="49.0" y="426.0" type="curve"/>
      <point x="49.0" y="309.0" type="line"/>
      <point x="87.0" y="309.0" type="line"/>
      <point x="101.0" y="384.0" type="line"/>
      <point x="119.0" y="386.0"/>
      <point x="140.0" y="387.0"/>
      <point x="153.0" y="387.0" type="curve" smooth="yes"/>
      <point x="309.0" y="387.0" type="line"/>
      <point x="312.0" y="409.0" type="line"/>
      <point x="53.0" y="23.0" type="line"/>
      <point x="53.0" y="-2.0" type="line"/>
      <point x="80.0" y="-1.0"/>
      <point x="109.0" y="0.0"/>
      <point x="136.0" y="0.0" type="curve" smooth="yes"/>
      <point x="286.0" y="0.0" type="line" smooth="yes"/>
      <point x="313.0" y="0.0"/>
      <point x="338.0" y="0.0"/>
      <point x="370.0" y="-1.0" type="curve"/>
      <point x="386.0" y="124.0" type="line"/>
      <point x="348.0" y="124.0" type="line"/>
      <point x="324.0" y="43.0" type="line"/>
      <point x="302.0" y="40.0"/>
      <point x="282.0" y="39.0"/>
      <point x="265.0" y="39.0" type="curve" smooth="yes"/>
      <point x="112.0" y="39.0" type="line"/>
    </contour>
  </outline>
</glyph>
<glyph name="exclamdown" format="2">
  <advance width="252.0"/>
  <unicode hex="00A1"/>
  <note>
exclamdown
</note>
  <outline>
    <contour>
      <point x="112.0" y="262.0" type="line"/>
      <point x="91.0" y="-189.0" type="line" smooth="yes"/>
      <point x="94.0" y="-221.0"/>
      <point x="113.0" y="-228.0"/>
      <point x="126.0" y="-228.0" type="curve" smooth="yes"/>
      <point x="139.0" y="-228.0"/>
      <point x="158.0" y="-221.0"/>
      <point x="161.0" y="-189.0" type="curve" smooth="yes"/>
      <point x="140.0" y="262.0" type="line"/>
    </contour>
    <contour>
      <point x="126.0" y="433.0" type="curve" smooth="yes"/>
      <point x="98.0" y="433.0"/>
      <point x="78.0" y="414.0"/>
      <point x="78.0" y="387.0" type="curve" smooth="yes"/>
      <point x="78.0" y="360.0"/>
      <point x="97.0" y="342.0"/>
      <point x="126.0" y="342.0" type="curve" smooth="yes"/>
      <point x="154.0" y="342.0"/>
      <point x="174.0" y="360.0"/>
      <point x="174.0" y="387.0" type="curve" smooth="yes"/>
      <point x="174.0" y="414.0"/>
      <point x="154.0" y="433.0"/>
    </contour>
  </outline>
</glyph>
<glyph name="cent" format="2">
  <advance width="408.0"/>
  <unicode hex="00A2"/>
  <note>
cent
</note>
  <outline>
    <contour>
      <point x="242.0" y="-8.0" type="curve" smooth="yes"/>
      <point x="314.0" y="-8.0"/>
      <point x="365.0" y="22.0"/>
      <point x="403.0" y="85.0" type="curve"/>
      <point x="379.0" y="105.0" type="line"/>
      <point x="346.0" y="62.0"/>
      <point x="313.0" y="43.0"/>
      <point x="256.0" y="43.0" type="curve" smooth="yes"/>
      <point x="172.0" y="43.0"/>
      <point x="108.0" y="105.0"/>
      <point x="108.0" y="216.0" type="curve" smooth="yes"/>
      <point x="108.0" y="356.0"/>
      <point x="201.0" y="416.0"/>
      <point x="289.0" y="397.0" type="curve"/>
      <point x="255.0" y="407.0" type="line"/>
      <point x="299.0" y="361.0" type="line" smooth="yes"/>
      <point x="322.0" y="338.0"/>
      <point x="330.0" y="331.0"/>
      <point x="351.0" y="331.0" type="curve" smooth="yes"/>
      <point x="375.0" y="331.0"/>
      <point x="385.0" y="345.0"/>
      <point x="385.0" y="363.0" type="curve" smooth="yes"/>
      <point x="385.0" y="397.0"/>
      <point x="346.0" y="433.0"/>
      <point x="259.0" y="433.0" type="curve" smooth="yes"/>
      <point x="139.0" y="433.0"/>
      <point x="44.0" y="338.0"/>
      <point x="44.0" y="206.0" type="curve" smooth="yes"/>
      <point x="44.0" y="67.0"/>
      <point x="135.0" y="-8.0"/>
    </contour>
    <contour>
      <point x="216.0" y="-101.0" type="line"/>
      <point x="252.0" y="-101.0" type="line"/>
      <point x="252.0" y="526.0" type="line"/>
      <point x="216.0" y="526.0" type="line"/>
    </contour>
  </outline>
</glyph>
<glyph name="currency" format="2">
  <advance width="540.0"/>
  <unicode hex="00A4"/>
  <note>
currency
</note>
  <outline>
    <contour>
      <point x="274.0" y="105.0" type="curve" smooth="yes"/>
      <point x="393.0" y="105.0"/>
      <point x="491.0" y="205.0"/>
      <point x="491.0" y="330.0" type="curve" smooth="yes"/>
      <point x="491.0" y="455.0"/>
      <point x="393.0" y="555.0"/>
      <point x="274.0" y="555.0" type="curve" smooth="yes"/>
      <point x="154.0" y="555.0"/>
      <point x="56.0" y="455.0"/>
      <point x="56.0" y="330.0" type="curve" smooth="yes"/>
      <point x="56.0" y="205.0"/>
      <point x="154.0" y="105.0"/>
    </contour>
    <contour>
      <point x="53.0" y="81.0" type="line"/>
      <point x="141.0" y="171.0" type="line"/>
      <point x="121.0" y="202.0" type="line"/>
      <point x="29.0" y="109.0" type="line"/>
    </contour>
    <contour>
      <point x="486.0" y="81.0" type="line"/>
      <point x="512.0" y="109.0" type="line"/>
      <point x="436.0" y="187.0" type="line"/>
      <point x="405.0" y="164.0" type="line"/>
    </contour>
    <contour>
      <point x="272.0" y="141.0" type="curve" smooth="yes"/>
      <point x="186.0" y="141.0"/>
      <point x="118.0" y="221.0"/>
      <point x="118.0" y="328.0" type="curve" smooth="yes"/>
      <point x="118.0" y="433.0"/>
      <point x="186.0" y="516.0"/>
      <point x="272.0" y="516.0" type="curve" smooth="yes"/>
      <point x="358.0" y="517.0"/>
      <point x="427.0" y="433.0"/>
      <point x="427.0" y="328.0" type="curve" smooth="yes"/>
      <point x="427.0" y="221.0"/>
      <point x="358.0" y="141.0"/>
    </contour>
    <contour>
      <point x="120.0" y="458.0" type="line"/>
      <point x="141.0" y="488.0" type="line"/>
      <point x="53.0" y="579.0" type="line"/>
      <point x="29.0" y="552.0" type="line"/>
    </contour>
    <contour>
      <point x="430.0" y="469.0" type="line"/>
      <point x="512.0" y="553.0" type="line"/>
      <point x="488.0" y="578.0" type="line"/>
      <point x="406.0" y="496.0" type="line"/>
    </contour>
  </outline>
</glyph>
<glyph name="plusminus" format="2">
  <advance width="540.0"/>
  <unicode hex="00B1"/>
  <outline>
    <contour>
      <point x="487.0" y="315.0" type="line"/>
      <point x="53.0" y="315.0" type="line"/>
      <point x="53.0" y="264.0" type="line"/>
      <point x="487.0" y="264.0" type="line"/>
    </contour>
    <contour>
      <point x="245.0" y="471.0" type="line"/>
      <point x="245.0" y="109.0" type="line"/>
      <point x="294.0" y="109.0" type="line"/>
      <point x="294.0" y="471.0" type="line"/>
    </contour>
    <contour>
      <point x="487.0" y="53.0" type="line"/>
      <point x="53.0" y="53.0" type="line"/>
      <point x="53.0" y="0.0" type="line"/>
      <point x="487.0" y="0.0" type="line"/>
    </contour>
  </outline>
</glyph>
<glyph name="periodcentered" format="2">
  <advance width="221.0"/>
  <unicode hex="00B7"/>
  <note>
periodcentered
</note>
  <outline>
    <contour>
      <point x="110.0" y="172.0" type="curve" smooth="yes"/>
      <point x="139.0" y="172.0"/>
      <point x="159.0" y="192.0"/>
      <point x="159.0" y="219.0" type="curve" smooth="yes"/>
      <point x="159.0" y="246.0"/>
      <point x="139.0" y="264.0"/>
      <point x="110.0" y="264.0" type="curve" smooth="yes"/>
      <point x="82.0" y="264.0"/>
      <point x="62.0" y="246.0"/>
      <point x="62.0" y="219.0" type="curve" smooth="yes"/>
      <point x="62.0" y="192.0"/>
      <point x="82.0" y="172.0"/>
    </contour>
  </outline>
</glyph>
<glyph name="AE" format="2">
  <advance width="792.0"/>
  <unicode hex="00C6"/>
  <note>
AE
</note>
  <anchor x="406.0" y="0.0" name="bottom"/>
  <anchor x="406.0" y="587.0" name="top"/>
  <outline>
    <contour>
      <point x="719.0" y="-5.0" type="curve"/>
      <point x="755.0" y="134.0" type="line"/>
      <point x="716.0" y="142.0" type="line"/>
      <point x="666.0" y="49.0" type="line"/>
      <point x="656.0" y="46.0"/>
      <point x="633.0" y="45.0"/>
      <point x="594.0" y="45.0" type="curve" smooth="yes"/>
      <point x="490.0" y="45.0" type="line" smooth="yes"/>
      <point x="451.0" y="45.0"/>
      <point x="448.0" y="45.0"/>
      <point x="437.0" y="47.0" type="curve"/>
      <point x="436.0" y="60.0"/>
      <point x="435.0" y="123.0"/>
      <point x="435.0" y="134.0" type="curve" smooth="yes"/>
      <point x="435.0" y="433.0" type="line" smooth="yes"/>
      <point x="435.0" y="458.0"/>
      <point x="436.0" y="534.0"/>
      <point x="437.0" y="543.0" type="curve"/>
      <point x="462.0" y="543.0"/>
      <point x="478.0" y="544.0"/>
      <point x="495.0" y="544.0" type="curve" smooth="yes"/>
      <point x="618.0" y="544.0" type="line" smooth="yes"/>
      <point x="632.0" y="544.0"/>
      <point x="646.0" y="543.0"/>
      <point x="651.0" y="542.0" type="curve"/>
      <point x="683.0" y="460.0" type="line"/>
      <point x="722.0" y="466.0" type="line"/>
      <point x="705.0" y="591.0" type="line"/>
      <point x="673.0" y="587.0"/>
      <point x="663.0" y="587.0"/>
      <point x="630.0" y="587.0" type="curve" smooth="yes"/>
      <point x="297.0" y="587.0" type="line"/>
      <point x="295.0" y="555.0" type="line"/>
      <point x="383.0" y="542.0" type="line"/>
      <point x="371.0" y="575.0" type="line"/>
      <point x="40.0" y="45.0" type="line"/>
      <point x="-9.0" y="32.0" type="line"/>
      <point x="-7.0" y="0.0" type="line"/>
      <point x="159.0" y="0.0" type="line"/>
      <point x="161.0" y="32.0" type="line"/>
      <point x="101.0" y="45.0" type="line"/>
      <point x="402.0" y="551.0" type="line"/>
      <point x="375.0" y="528.0" type="line"/>
      <point x="375.0" y="143.0" type="line" smooth="yes"/>
      <point x="375.0" y="77.0"/>
      <point x="374.0" y="58.0"/>
      <point x="373.0" y="45.0" type="curve"/>
      <point x="313.0" y="32.0" type="line"/>
      <point x="315.0" y="0.0" type="line"/>
      <point x="645.0" y="0.0" type="line" smooth="yes"/>
      <point x="663.0" y="0.0"/>
      <point x="669.0" y="0.0"/>
    </contour>
    <contour>
      <point x="174.0" y="189.0" type="line"/>
      <point x="206.0" y="191.0"/>
      <point x="244.0" y="190.0"/>
      <point x="297.0" y="190.0" type="curve" smooth="yes"/>
      <point x="384.0" y="190.0"/>
      <point x="403.0" y="191.0"/>
      <point x="406.0" y="188.0" type="curve"/>
      <point x="406.0" y="236.0" type="line"/>
      <point x="391.0" y="234.0"/>
      <point x="353.0" y="233.0"/>
      <point x="297.0" y="233.0" type="curve" smooth="yes"/>
      <point x="247.0" y="233.0"/>
      <point x="200.0" y="234.0"/>
      <point x="182.0" y="236.0" type="curve"/>
    </contour>
    <contour>
      <point x="616.0" y="208.0" type="line"/>
      <point x="650.0" y="208.0" type="line"/>
      <point x="650.0" y="398.0" type="line"/>
      <point x="616.0" y="398.0" type="line"/>
      <point x="601.0" y="327.0" type="line"/>
      <point x="594.0" y="324.0"/>
      <point x="581.0" y="324.0"/>
      <point x="560.0" y="324.0" type="curve" smooth="yes"/>
      <point x="482.0" y="324.0" type="line" smooth="yes"/>
      <point x="467.0" y="324.0"/>
      <point x="451.0" y="324.0"/>
      <point x="423.0" y="325.0" type="curve"/>
      <point x="423.0" y="279.0" type="line"/>
      <point x="451.0" y="280.0"/>
      <point x="467.0" y="281.0"/>
      <point x="482.0" y="281.0" type="curve" smooth="yes"/>
      <point x="560.0" y="281.0" type="line" smooth="yes"/>
      <point x="581.0" y="281.0"/>
      <point x="594.0" y="280.0"/>
      <point x="601.0" y="277.0" type="curve"/>
    </contour>
  </outline>
</glyph>
<glyph name="divide" format="2">
  <advance width="540.0"/>
  <unicode hex="00F7"/>
  <outline>
    <contour>
      <point x="487.0" y="280.0" type="line"/>
      <point x="53.0" y="280.0" type="line"/>
      <point x="53.0" y="226.0" type="line"/>
      <point x="487.0" y="226.0" type="line"/>
    </contour>
    <contour>
      <point x="266.0" y="30.0" type="curve" smooth="yes"/>
      <point x="291.0" y="30.0"/>
      <point x="311.0" y="50.0"/>
      <point x="311.0" y="75.0" type="curve" smooth="yes"/>
      <point x="311.0" y="100.0"/>
      <point x="291.0" y="119.0"/>
      <point x="266.0" y="119.0" type="curve" smooth="yes"/>
      <point x="241.0" y="119.0"/>
      <point x="221.0" y="100.0"/>
      <point x="221.0" y="75.0" type="curve" smooth="yes"/>
      <point x="221.0" y="50.0"/>
      <point x="241.0" y="30.0"/>
    </contour>
    <contour>
      <point x="266.0" y="386.0" type="curve" smooth="yes"/>
      <point x="291.0" y="386.0"/>
      <point x="311.0" y="407.0"/>
      <point x="311.0" y="432.0" type="curve" smooth="yes"/>
      <point x="311.0" y="457.0"/>
      <point x="291.0" y="476.0"/>
      <point x="266.0" y="476.0" type="curve" smooth="yes"/>
      <point x="241.0" y="476.0"/>
      <point x="221.0" y="457.0"/>
      <point x="221.0" y="432.0" type="curve" smooth="yes"/>
      <point x="221.0" y="407.0"/>
      <point x="241.0" y="386.0"/>
    </contour>
  </outline>
</glyph>
<glyph name="eogonek" format="2">
  <advance width="439.0"/>
  <unicode hex="0119"/>
  <note>
    eogonek
  </note>
  <anchor x="234.0" y="425.0" name="top"/>
  <outline>
    <contour>
      <point x="381.0" y="-152.0" type="line"/>
      <point x="361.0" y="-172.0"/>
      <point x="339.0" y="-187.0"/>
      <point x="312.0" y="-187.0" type="curve" smooth="yes"/>
      <point x="274.0" y="-187.0"/>
      <point x="251.0" y="-163.0"/>
      <point x="251.0" y="-127.0" type="curve" smooth="yes"/>
      <point x="251.0" y="-85.0"/>
      <point x="284.0" y="-42.0"/>
      <point x="360.0" y="37.0" type="curve" smooth="yes"/>
      <point x="372.0" y="49.0"/>
      <point x="385.0" y="65.0"/>
      <point x="399.0" y="86.0" type="curve"/>
      <point x="376.0" y="106.0" type="line"/>
      <point x="342.0" y="63.0"/>
      <point x="307.0" y="45.0"/>
      <point x="258.0" y="45.0" type="curve" smooth="yes"/>
      <point x="173.0" y="45.0"/>
      <point x="107.0" y="106.0"/>
      <point x="107.0" y="224.0" type="curve" smooth="yes"/>
      <point x="107.0" y="232.0" type="line" smooth="yes"/>
      <point x="107.0" y="341.0"/>
      <point x="173.0" y="399.0"/>
      <point x="234.0" y="399.0" type="curve" smooth="yes"/>
      <point x="300.0" y="399.0"/>
      <point x="333.0" y="344.234577309433"/>
      <point x="333.0" y="270.0" type="curve" smooth="yes"/>
      <point x="333.0" y="255.0" type="line"/>
      <point x="342.0" y="263.0" type="line"/>
      <point x="84.0" y="263.0" type="line"/>
      <point x="84.0" y="223.0" type="line"/>
      <point x="399.0" y="223.0" type="line"/>
      <point x="399.0" y="238.0" type="line" smooth="yes"/>
      <point x="399.0" y="368.0"/>
      <point x="338.0" y="431.0"/>
      <point x="242.0" y="433.0" type="curve" smooth="yes"/>
      <point x="138.0" y="435.0"/>
      <point x="45.0" y="348.0"/>
      <point x="45.0" y="203.0" type="curve" smooth="yes"/>
      <point x="45.0" y="68.0"/>
      <point x="134.0" y="-8.0"/>
      <point x="243.0" y="-8.0" type="curve" smooth="yes"/>
      <point x="270.0" y="-8.0"/>
      <point x="300.0" y="-4.0"/>
      <point x="315.0" y="6.0" type="curve"/>
      <point x="323.0" y="21.0" type="line"/>
      <point x="245.0" y="-30.0"/>
      <point x="193.0" y="-80.0"/>
      <point x="193.0" y="-137.0" type="curve" smooth="yes"/>
      <point x="193.0" y="-184.0"/>
      <point x="231.0" y="-223.0"/>
      <point x="300.0" y="-223.0" type="curve" smooth="yes"/>
      <point x="341.0" y="-223.0"/>
      <point x="376.0" y="-202.0"/>
      <point x="400.0" y="-173.0" type="curve"/>
    </contour>
  </outline>
</glyph>
<glyph name="iogonek" format="2">
  <advance width="255.0"/>
  <unicode hex="012F"/>
  <note>
iogonek
</note>
  <outline>
    <contour>
      <point x="135.0" y="-223.0" type="curve" smooth="yes"/>
      <point x="177.0" y="-223.0"/>
      <point x="211.0" y="-202.0"/>
      <point x="236.0" y="-173.0" type="curve"/>
      <point x="217.0" y="-152.0" type="line"/>
      <point x="197.0" y="-172.0"/>
      <point x="175.0" y="-187.0"/>
      <point x="147.0" y="-187.0" type="curve" smooth="yes"/>
      <point x="110.0" y="-187.0"/>
      <point x="86.0" y="-163.0"/>
      <point x="86.0" y="-122.0" type="curve" smooth="yes"/>
      <point x="86.0" y="-49.0"/>
      <point x="174.0" y="-3.0"/>
      <point x="223.0" y="0.0" type="curve"/>
      <point x="225.0" y="32.0" type="line"/>
      <point x="158.0" y="45.0" type="line"/>
      <point x="156.0" y="55.0"/>
      <point x="154.0" y="97.0"/>
      <point x="154.0" y="165.0" type="curve" smooth="yes"/>
      <point x="154.0" y="291.0" type="line" smooth="yes"/>
      <point x="154.0" y="344.0"/>
      <point x="156.0" y="379.0"/>
      <point x="159.0" y="420.0" type="curve"/>
      <point x="150.0" y="431.0" type="line"/>
      <point x="29.0" y="399.0" type="line"/>
      <point x="29.0" y="371.0" type="line"/>
      <point x="96.0" y="357.0" type="line"/>
      <point x="98.0" y="338.0"/>
      <point x="102.0" y="280.0"/>
      <point x="102.0" y="215.0" type="curve"/>
      <point x="102.0" y="155.0" type="line" smooth="yes"/>
      <point x="102.0" y="64.0"/>
      <point x="100.0" y="52.0"/>
      <point x="99.0" y="45.0" type="curve"/>
      <point x="32.0" y="32.0" type="line"/>
      <point x="34.0" y="0.0" type="line"/>
      <point x="187.0" y="0.0" type="line"/>
      <point x="171.0" y="9.0" type="line"/>
      <point x="99.0" y="-6.0"/>
      <point x="29.0" y="-60.0"/>
      <point x="29.0" y="-137.0" type="curve" smooth="yes"/>
      <point x="29.0" y="-184.0"/>
      <point x="66.0" y="-223.0"/>
    </contour>
    <component base="dotaccentcomb.i" xOffset="-173.0"/>
  </outline>
</glyph>
<glyph name="idotless" format="2">
  <advance width="255.0"/>
  <unicode hex="0131"/>
  <note>
dotlessi
</note>
  <anchor x="127.0" y="0.0" name="bottom"/>
  <anchor x="185.0" y="0.0" name="ogonek"/>
  <anchor x="127.0" y="425.0" name="top"/>
  <outline>
    <contour>
      <point x="34.0" y="0.0" type="line"/>
      <point x="223.0" y="0.0" type="line"/>
      <point x="225.0" y="32.0" type="line"/>
      <point x="158.0" y="45.0" type="line"/>
      <point x="156.0" y="55.0"/>
      <point x="154.0" y="97.0"/>
      <point x="154.0" y="165.0" type="curve" smooth="yes"/>
      <point x="154.0" y="291.0" type="line" smooth="yes"/>
      <point x="154.0" y="344.0"/>
      <point x="156.0" y="379.0"/>
      <point x="159.0" y="420.0" type="curve"/>
      <point x="150.0" y="431.0" type="line"/>
      <point x="29.0" y="399.0" type="line"/>
      <point x="29.0" y="371.0" type="line"/>
      <point x="96.0" y="357.0" type="line"/>
      <point x="98.0" y="338.0"/>
      <point x="102.0" y="280.0"/>
      <point x="102.0" y="215.0" type="curve"/>
      <point x="102.0" y="155.0" type="line"/>
      <point x="101.0" y="64.0"/>
      <point x="100.0" y="52.0"/>
      <point x="99.0" y="45.0" type="curve"/>
      <point x="32.0" y="32.0" type="line"/>
    </contour>
  </outline>
</glyph>
<glyph name="Eng" format="2">
  <advance width="665.0"/>
  <unicode hex="014A"/>
  <note>
    Eng
  </note>
  <outline>
    <contour>
      <point x="397.0" y="-203.0" type="curve" smooth="yes"/>
      <point x="486.0" y="-203.0"/>
      <point x="547.0" y="-120.0"/>
      <point x="547.0" y="2.0" type="curve" smooth="yes"/>
      <point x="547.0" y="381.0" type="line" smooth="yes"/>
      <point x="547.0" y="507.0"/>
      <point x="551.0" y="537.0"/>
      <point x="552.0" y="542.0" type="curve"/>
      <point x="612.0" y="555.0" type="line"/>
      <point x="610.0" y="587.0" type="line"/>
      <point x="430.0" y="587.0" type="line"/>
      <point x="428.0" y="555.0" type="line"/>
      <point x="495.0" y="542.0" type="line"/>
      <point x="496.0" y="537.0"/>
      <point x="500.0" y="508.0"/>
      <point x="500.0" y="381.0" type="curve" smooth="yes"/>
      <point x="500.0" y="121.0" type="line"/>
      <point x="507.0" y="121.0" type="line"/>
      <point x="182.0" y="587.0" type="line"/>
      <point x="55.0" y="587.0" type="line"/>
      <point x="53.0" y="555.0" type="line"/>
      <point x="113.0" y="542.0" type="line"/>
      <point x="116.0" y="526.0"/>
      <point x="118.0" y="499.0"/>
      <point x="118.0" y="394.0" type="curve" smooth="yes"/>
      <point x="118.0" y="204.0" type="line" smooth="yes"/>
      <point x="118.0" y="76.0"/>
      <point x="114.0" y="50.0"/>
      <point x="113.0" y="45.0" type="curve"/>
      <point x="53.0" y="32.0" type="line"/>
      <point x="55.0" y="0.0" type="line"/>
      <point x="237.0" y="0.0" type="line"/>
      <point x="239.0" y="32.0" type="line"/>
      <point x="172.0" y="45.0" type="line"/>
      <point x="171.0" y="50.0"/>
      <point x="166.0" y="79.0"/>
      <point x="166.0" y="204.0" type="curve" smooth="yes"/>
      <point x="166.0" y="507.0" type="line"/>
      <point x="159.0" y="507.0" type="line"/>
      <point x="512.0" y="-4.0" type="line"/>
      <point x="498.0" y="77.0" type="line"/>
      <point x="498.0" y="-3.0" type="line" smooth="yes"/>
      <point x="498.0" y="-104.0"/>
      <point x="454.41830778879233" y="-160.49602845555478"/>
      <point x="406.4252460924324" y="-160.49602845555478" type="curve" smooth="yes"/>
      <point x="384.9645772089316" y="-160.49602845555478"/>
      <point x="365.28833606697935" y="-128.95773076937417"/>
      <point x="354.08995500449487" y="-90.3347430232543" type="curve"/>
      <point x="349.4874457809683" y="-87.94143822702017"/>
      <point x="342.02820669456287" y="-84.89552936433324"/>
      <point x="332.83588482467735" y="-84.89552936433324" type="curve" smooth="yes"/>
      <point x="310.8358848246782" y="-84.89552936433324"/>
      <point x="292.55462252775396" y="-98.44328506604896"/>
      <point x="292.55462252775396" y="-125.2974599306649" type="curve" smooth="yes"/>
      <point x="292.55462252775396" y="-161.62957886514482"/>
      <point x="339.0" y="-203.0"/>
    </contour>
  </outline>
</glyph>
<glyph name="OE" format="2">
  <advance width="914.0"/>
  <unicode hex="0152"/>
  <note>
OE
</note>
  <anchor x="521.0" y="0.0" name="bottom"/>
  <anchor x="521.0" y="587.0" name="top"/>
  <outline>
    <contour>
      <point x="395.0" y="-9.0" type="curve" smooth="yes"/>
      <point x="447.0" y="-9.0"/>
      <point x="500.0" y="0.0"/>
      <point x="531.0" y="0.0" type="curve" smooth="yes"/>
      <point x="767.0" y="0.0" type="line" smooth="yes"/>
      <point x="786.0" y="0.0"/>
      <point x="797.0" y="0.0"/>
      <point x="840.0" y="-5.0" type="curve"/>
      <point x="877.0" y="134.0" type="line"/>
      <point x="838.0" y="142.0" type="line"/>
      <point x="787.0" y="49.0" type="line"/>
      <point x="779.0" y="46.0"/>
      <point x="756.0" y="45.0"/>
      <point x="716.0" y="45.0" type="curve" smooth="yes"/>
      <point x="605.0" y="45.0" type="line" smooth="yes"/>
      <point x="591.0" y="45.0"/>
      <point x="575.0" y="46.0"/>
      <point x="553.0" y="49.0" type="curve"/>
      <point x="552.0" y="58.0"/>
      <point x="551.0" y="107.0"/>
      <point x="551.0" y="134.0" type="curve" smooth="yes"/>
      <point x="551.0" y="433.0" type="line" smooth="yes"/>
      <point x="551.0" y="470.0"/>
      <point x="552.0" y="534.0"/>
      <point x="553.0" y="540.0" type="curve"/>
      <point x="569.0" y="543.0"/>
      <point x="593.0" y="544.0"/>
      <point x="612.0" y="544.0" type="curve" smooth="yes"/>
      <point x="739.0" y="544.0" type="line" smooth="yes"/>
      <point x="753.0" y="544.0"/>
      <point x="767.0" y="543.0"/>
      <point x="773.0" y="542.0" type="curve"/>
      <point x="805.0" y="460.0" type="line"/>
      <point x="844.0" y="466.0" type="line"/>
      <point x="827.0" y="591.0" type="line"/>
      <point x="785.0" y="587.0"/>
      <point x="774.0" y="587.0"/>
      <point x="752.0" y="587.0" type="curve" smooth="yes"/>
      <point x="511.0" y="587.0" type="line" smooth="yes"/>
      <point x="469.0" y="587.0"/>
      <point x="431.0" y="594.0"/>
      <point x="379.0" y="594.0" type="curve" smooth="yes"/>
      <point x="195.0" y="594.0"/>
      <point x="56.0" y="474.0"/>
      <point x="56.0" y="288.0" type="curve" smooth="yes"/>
      <point x="56.0" y="99.0"/>
      <point x="179.0" y="-9.0"/>
    </contour>
    <contour>
      <point x="401.0" y="36.0" type="curve" smooth="yes"/>
      <point x="235.0" y="36.0"/>
      <point x="135.0" y="134.0"/>
      <point x="135.0" y="299.0" type="curve" smooth="yes"/>
      <point x="135.0" y="450.0"/>
      <point x="222.0" y="549.0"/>
      <point x="375.0" y="549.0" type="curve" smooth="yes"/>
      <point x="416.0" y="549.0"/>
      <point x="449.0" y="545.0"/>
      <point x="487.0" y="535.0" type="curve"/>
      <point x="490.0" y="506.0"/>
      <point x="491.0" y="462.0"/>
      <point x="491.0" y="399.0" type="curve" smooth="yes"/>
      <point x="491.0" y="193.0" type="line" smooth="yes"/>
      <point x="491.0" y="98.0"/>
      <point x="491.0" y="69.0"/>
      <point x="489.0" y="49.0" type="curve"/>
      <point x="465.0" y="41.0"/>
      <point x="432.0" y="36.0"/>
    </contour>
    <contour>
      <point x="736.0" y="207.0" type="line"/>
      <point x="772.0" y="207.0" type="line"/>
      <point x="772.0" y="398.0" type="line"/>
      <point x="736.0" y="398.0" type="line"/>
      <point x="724.0" y="327.0" type="line"/>
      <point x="716.0" y="324.0"/>
      <point x="703.0" y="324.0"/>
      <point x="683.0" y="324.0" type="curve" smooth="yes"/>
      <point x="601.0" y="324.0" type="line" smooth="yes"/>
      <point x="586.0" y="324.0"/>
      <point x="566.0" y="324.0"/>
      <point x="539.0" y="325.0" type="curve"/>
      <point x="539.0" y="278.0" type="line"/>
      <point x="566.0" y="279.0"/>
      <point x="586.0" y="280.0"/>
      <point x="601.0" y="280.0" type="curve" smooth="yes"/>
      <point x="683.0" y="280.0" type="line" smooth="yes"/>
      <point x="703.0" y="280.0"/>
      <point x="716.0" y="279.0"/>
      <point x="724.0" y="276.0" type="curve"/>
    </contour>
  </outline>
</glyph>
<glyph name="Ohorn" format="2">
  <advance width="678.0"/>
  <unicode hex="01A0"/>
  <note>
Ohorn
</note>
  <anchor x="338.0" y="0.0" name="bottom"/>
  <anchor x="338.0" y="294.0" name="center"/>
  <anchor x="338.0" y="587.0" name="top"/>
  <anchor x="19.0" y="587.0" name="topleft"/>
  <outline>
    <contour>
      <point x="651.0" y="650.0" type="curve" smooth="yes"/>
      <point x="651.0" y="697.0"/>
      <point x="617.0" y="716.0"/>
      <point x="572.0" y="706.0" type="curve"/>
      <point x="570.0" y="659.0" type="line" smooth="yes"/>
      <point x="567.0" y="594.0"/>
      <point x="542.0" y="579.0"/>
      <point x="498.0" y="579.0" type="curve" smooth="yes"/>
      <point x="457.0" y="579.0"/>
      <point x="411.0" y="596.0"/>
      <point x="349.0" y="596.0" type="curve" smooth="yes"/>
      <point x="180.0" y="596.0"/>
      <point x="55.0" y="466.0"/>
      <point x="55.0" y="293.0" type="curve" smooth="yes"/>
      <point x="55.0" y="114.0"/>
      <point x="174.0" y="-9.0"/>
      <point x="344.0" y="-9.0" type="curve" smooth="yes"/>
      <point x="508.0" y="-9.0"/>
      <point x="623.0" y="131.0"/>
      <point x="623.0" y="296.0" type="curve" smooth="yes"/>
      <point x="623.0" y="413.0"/>
      <point x="573.0" y="507.0"/>
      <point x="491.0" y="559.0" type="curve"/>
      <point x="477.0" y="535.0" type="line"/>
      <point x="599.0" y="520.0"/>
      <point x="651.0" y="601.0"/>
    </contour>
    <contour>
      <point x="355.0" y="35.0" type="curve" smooth="yes"/>
      <point x="226.0" y="35.0"/>
      <point x="133.0" y="149.0"/>
      <point x="133.0" y="307.0" type="curve" smooth="yes"/>
      <point x="133.0" y="459.0"/>
      <point x="210.0" y="554.0"/>
      <point x="336.0" y="554.0" type="curve" smooth="yes"/>
      <point x="462.0" y="554.0"/>
      <point x="549.0" y="438.0"/>
      <point x="549.0" y="273.0" type="curve" smooth="yes"/>
      <point x="549.0" y="131.0"/>
      <point x="470.0" y="35.0"/>
    </contour>
  </outline>
</glyph>
<glyph name="uhorn" format="2">
  <advance width="525.0"/>
  <unicode hex="01B0"/>
  <note>
uhorn
</note>
  <anchor x="262.0" y="0.0" name="bottom"/>
  <anchor x="415.0" y="0.0" name="ogonek"/>
  <anchor x="262.0" y="425.0" name="top"/>
  <outline>
    <contour>
      <point x="383.0" y="-10.0" type="line"/>
      <point x="494.0" y="15.0" type="line"/>
      <point x="494.0" y="43.0" type="line"/>
      <point x="431.0" y="60.0" type="line"/>
      <point x="429.0" y="78.0"/>
      <point x="424.0" y="120.0"/>
      <point x="424.0" y="214.0" type="curve" smooth="yes"/>
      <point x="424.0" y="414.0" type="line"/>
      <point x="382.0" y="394.0" type="line"/>
      <point x="477.0" y="399.0"/>
      <point x="531.0" y="430.0"/>
      <point x="531.0" y="486.0" type="curve" smooth="yes"/>
      <point x="531.0" y="520.0"/>
      <point x="493.0" y="530.0"/>
      <point x="460.0" y="521.0" type="curve"/>
      <point x="460.0" y="498.0" type="line" smooth="yes"/>
      <point x="460.0" y="451.0"/>
      <point x="446.0" y="439.0"/>
      <point x="401.0" y="427.0" type="curve" smooth="yes"/>
      <point x="296.0" y="399.0" type="line"/>
      <point x="296.0" y="371.0" type="line"/>
      <point x="369.0" y="357.0" type="line"/>
      <point x="372.0" y="330.0"/>
      <point x="374.0" y="277.0"/>
      <point x="374.0" y="234.0" type="curve" smooth="yes"/>
      <point x="374.0" y="111.0" type="line"/>
      <point x="342.0" y="60.0"/>
      <point x="297.0" y="42.0"/>
      <point x="257.0" y="42.0" type="curve" smooth="yes"/>
      <point x="192.0" y="42.0"/>
      <point x="145.0" y="74.0"/>
      <point x="145.0" y="165.0" type="curve" smooth="yes"/>
      <point x="145.0" y="286.0" type="line" smooth="yes"/>
      <point x="145.0" y="334.0"/>
      <point x="146.0" y="374.0"/>
      <point x="148.0" y="417.0" type="curve"/>
      <point x="136.0" y="431.0" type="line"/>
      <point x="22.0" y="399.0" type="line"/>
      <point x="22.0" y="371.0" type="line"/>
      <point x="90.0" y="357.0" type="line"/>
      <point x="92.0" y="321.0"/>
      <point x="94.0" y="282.0"/>
      <point x="94.0" y="239.0" type="curve" smooth="yes"/>
      <point x="94.0" y="151.0" type="line" smooth="yes"/>
      <point x="94.0" y="45.0"/>
      <point x="163.0" y="-7.0"/>
      <point x="249.0" y="-7.0" type="curve" smooth="yes"/>
      <point x="296.0" y="-7.0"/>
      <point x="332.0" y="11.0"/>
      <point x="372.0" y="63.0" type="curve"/>
      <point x="375.0" y="62.0" type="line"/>
      <point x="374.0" y="2.0" type="line"/>
    </contour>
  </outline>
</glyph>
<glyph name="jdotless" format="2">
  <advance width="239.0"/>
  <unicode hex="0237"/>
  <note>
uni0237
</note>
  <anchor x="127.0" y="425.0" name="top"/>
  <outline>
    <contour>
      <point x="13.0" y="-231.0" type="line"/>
      <point x="124.0" y="-173.0"/>
      <point x="154.0" y="-106.0"/>
      <point x="154.0" y="-10.0" type="curve"/>
      <point x="153.0" y="296.0" type="line"/>
      <point x="153.0" y="353.0"/>
      <point x="155.0" y="386.0"/>
      <point x="158.0" y="419.0" type="curve"/>
      <point x="149.0" y="431.0" type="line"/>
      <point x="28.0" y="399.0" type="line"/>
      <point x="28.0" y="371.0" type="line"/>
      <point x="95.0" y="359.0" type="line"/>
      <point x="96.0" y="353.0"/>
      <point x="102.0" y="309.0"/>
      <point x="102.0" y="249.0" type="curve"/>
      <point x="101.0" y="-20.0" type="line"/>
      <point x="101.0" y="-115.0"/>
      <point x="68.0" y="-163.0"/>
      <point x="-3.0" y="-203.0" type="curve"/>
    </contour>
  </outline>
</glyph>
<glyph name="schwa" format="2">
  <advance width="443.0"/>
  <unicode hex="0259"/>
  <outline>
    <contour>
      <point x="205.0" y="433.0" type="curve" smooth="yes"/>
      <point x="135.0" y="433.0"/>
      <point x="75.0" y="400.0"/>
      <point x="40.0" y="340.0" type="curve"/>
      <point x="64.0" y="319.0" type="line"/>
      <point x="97.0" y="362.0"/>
      <point x="137.0" y="382.0"/>
      <point x="189.0" y="382.0" type="curve" smooth="yes"/>
      <point x="278.0" y="382.0"/>
      <point x="333.0" y="312.0"/>
      <point x="333.0" y="197.0" type="curve" smooth="yes"/>
      <point x="333.0" y="190.0" type="line" smooth="yes"/>
      <point x="333.0" y="90.0"/>
      <point x="290.0" y="29.0"/>
      <point x="218.0" y="29.0" type="curve" smooth="yes"/>
      <point x="148.0" y="29.0"/>
      <point x="103.0" y="77.0"/>
      <point x="103.0" y="156.0" type="curve" smooth="yes"/>
      <point x="103.0" y="170.0" type="line"/>
      <point x="94.0" y="163.0" type="line"/>
      <point x="359.0" y="163.0" type="line"/>
      <point x="359.0" y="203.0" type="line"/>
      <point x="41.0" y="203.0" type="line"/>
      <point x="41.0" y="189.0" type="line" smooth="yes"/>
      <point x="41.0" y="66.0"/>
      <point x="105.0" y="-7.0"/>
      <point x="212.0" y="-8.0" type="curve" smooth="yes"/>
      <point x="319.0" y="-9.0"/>
      <point x="398.0" y="77.0"/>
      <point x="398.0" y="223.0" type="curve" smooth="yes"/>
      <point x="398.0" y="351.0"/>
      <point x="322.0" y="433.0"/>
    </contour>
  </outline>
</glyph>
<glyph name="commaturnedmod" format="2">
  <advance width="600.0"/>
  <unicode hex="02BB"/>
  <note>
uni02BB
</note>
  <anchor x="300.0" y="425.0" name="_top"/>
  <anchor x="300.0" y="671.0" name="top"/>
  <outline>
    <contour>
      <point x="360.0" y="713.0" type="line"/>
      <point x="302.0" y="691.0"/>
      <point x="258.0" y="647.0"/>
      <point x="258.0" y="592.0" type="curve" smooth="yes"/>
      <point x="258.0" y="560.0"/>
      <point x="274.0" y="534.0"/>
      <point x="307.0" y="534.0" type="curve" smooth="yes"/>
      <point x="327.0" y="534.0"/>
      <point x="342.0" y="548.0"/>
      <point x="342.0" y="567.0" type="curve" smooth="yes"/>
      <point x="342.0" y="602.0"/>
      <point x="308.0" y="600.0"/>
      <point x="308.0" y="631.0" type="curve" smooth="yes"/>
      <point x="308.0" y="655.0"/>
      <point x="335.0" y="678.0"/>
      <point x="371.0" y="691.0" type="curve"/>
    </contour>
  </outline>
</glyph>
<glyph name="ringhalfright" format="2">
  <advance width="600.0"/>
  <unicode hex="02BE"/>
  <anchor x="300.0" y="425.0" name="_top"/>
  <anchor x="300.0" y="699.0" name="top"/>
  <outline>
    <contour>
      <point x="300.0" y="497.0" type="line"/>
      <point x="352.0" y="497.0"/>
      <point x="394.0" y="537.0"/>
      <point x="394.0" y="589.0" type="curve" smooth="yes"/>
      <point x="394.0" y="640.0"/>
      <point x="352.0" y="680.0"/>
      <point x="300.0" y="680.0" type="curve"/>
      <point x="300.0" y="653.0" type="line"/>
      <point x="333.0" y="653.0"/>
      <point x="359.0" y="627.0"/>
      <point x="359.0" y="590.0" type="curve" smooth="yes"/>
      <point x="359.0" y="553.0"/>
      <point x="333.0" y="526.0"/>
      <point x="300.0" y="526.0" type="curve"/>
    </contour>
  </outline>
</glyph>
<glyph name="verticallinemod" format="2">
  <advance width="600.0"/>
  <unicode hex="02C8"/>
  <anchor x="300.0" y="425.0" name="_top"/>
  <anchor x="300.0" y="687.0" name="top"/>
  <outline>
    <contour>
      <point x="277.0" y="525.0" type="line"/>
      <point x="324.0" y="525.0" type="line"/>
      <point x="324.0" y="645.0" type="line"/>
      <point x="277.0" y="645.0" type="line"/>
    </contour>
  </outline>
</glyph>
<glyph name="dieresiscomb" format="2">
  <unicode hex="0308"/>
  <note>
uni0308
</note>
  <anchor x="300.0" y="425.0" name="_top"/>
  <anchor x="300.0" y="671.0" name="top"/>
  <outline>
    <contour>
      <point x="228.0" y="536.0" type="curve" smooth="yes"/>
      <point x="250.0" y="536.0"/>
      <point x="269.0" y="552.0"/>
      <point x="269.0" y="578.0" type="curve" smooth="yes"/>
      <point x="269.0" y="603.0"/>
      <point x="250.0" y="620.0"/>
      <point x="228.0" y="620.0" type="curve" smooth="yes"/>
      <point x="205.0" y="620.0"/>
      <point x="185.0" y="603.0"/>
      <point x="185.0" y="578.0" type="curve" smooth="yes"/>
      <point x="185.0" y="552.0"/>
      <point x="205.0" y="536.0"/>
    </contour>
    <contour>
      <point x="374.0" y="536.0" type="curve" smooth="yes"/>
      <point x="396.0" y="536.0"/>
      <point x="415.0" y="552.0"/>
      <point x="415.0" y="578.0" type="curve" smooth="yes"/>
      <point x="415.0" y="603.0"/>
      <point x="396.0" y="620.0"/>
      <point x="374.0" y="620.0" type="curve" smooth="yes"/>
      <point x="351.0" y="620.0"/>
      <point x="331.0" y="603.0"/>
      <point x="331.0" y="578.0" type="curve" smooth="yes"/>
      <point x="331.0" y="552.0"/>
      <point x="351.0" y="536.0"/>
    </contour>
  </outline>
</glyph>
<glyph name="strokelongcomb" format="2">
  <unicode hex="0336"/>
  <anchor x="258.0" y="406.0" name="_center"/>
  <outline>
    <contour>
      <point x="-30.0" y="385.0" type="line"/>
      <point x="545.0" y="385.0" type="line"/>
      <point x="545.0" y="427.0" type="line"/>
      <point x="-30.0" y="427.0" type="line"/>
    </contour>
  </outline>
</glyph>
<glyph name="perthousand" format="2">
  <advance width="1105.0"/>
  <unicode hex="2030"/>
  <note>
perthousand
</note>
  <outline>
    <contour>
      <point x="913.0" y="-6.0" type="curve" smooth="yes"/>
      <point x="999.0" y="-6.0"/>
      <point x="1071.0" y="59.0"/>
      <point x="1071.0" y="147.0" type="curve" smooth="yes"/>
      <point x="1071.0" y="238.0"/>
      <point x="1001.0" y="300.0"/>
      <point x="913.0" y="300.0" type="curve" smooth="yes"/>
      <point x="828.0" y="300.0"/>
      <point x="755.0" y="233.0"/>
      <point x="755.0" y="147.0" type="curve" smooth="yes"/>
      <point x="755.0" y="56.0"/>
      <point x="823.0" y="-6.0"/>
    </contour>
    <contour>
      <point x="913.0" y="40.0" type="curve" smooth="yes"/>
      <point x="854.0" y="40.0"/>
      <point x="812.0" y="85.0"/>
      <point x="812.0" y="148.0" type="curve" smooth="yes"/>
      <point x="812.0" y="210.0"/>
      <point x="854.0" y="256.0"/>
      <point x="913.0" y="256.0" type="curve" smooth="yes"/>
      <point x="971.0" y="256.0"/>
      <point x="1017.0" y="211.0"/>
      <point x="1017.0" y="148.0" type="curve" smooth="yes"/>
      <point x="1017.0" y="84.0"/>
      <point x="971.0" y="40.0"/>
    </contour>
    <component base="percent"/>
  </outline>
</glyph>
<glyph name="fiveinferior" format="2">
  <advance width="400.0"/>
  <unicode hex="2085"/>
  <outline>
    <contour>
      <point x="171" y="-6" type="curve" smooth="yes"/>
      <point x="112" y="-6"/>
      <point x="67" y="18"/>
      <point x="67" y="50" type="curve" smooth="yes"/>
      <point x="67" y="70"/>
      <point x="86" y="81"/>
      <point x="102" y="81" type="curve" smooth="yes"/>
      <point x="106" y="81"/>
      <point x="112" y="81"/>
      <point x="117" y="78" type="curve"/>
      <point x="128" y="62"/>
      <point x="142" y="44"/>
      <point x="155" y="31" type="curve"/>
      <point x="161" y="28"/>
      <point x="169" y="27"/>
      <point x="176" y="27" type="curve" smooth="yes"/>
      <point x="227.739" y="27"/>
      <point x="282" y="56"/>
      <point x="282" y="107" type="curve" smooth="yes"/>
      <point x="282" y="154"/>
      <point x="237" y="176"/>
      <point x="102" y="188" type="curve"/>
      <point x="128" y="388" type="line"/>
      <point x="319" y="388" type="line"/>
      <point x="312" y="329" type="line"/>
      <point x="156" y="329" type="line"/>
      <point x="142" y="218" type="line"/>
      <point x="125" y="245" type="line"/>
      <point x="279" y="229"/>
      <point x="340" y="189"/>
      <point x="340" y="117" type="curve" smooth="yes"/>
      <point x="340" y="50"/>
      <point x="263" y="-6"/>
    </contour>
  </outline>
</glyph>
<glyph name="dong" format="2">
  <advance width="530.0"/>
  <unicode hex="20AB"/>
  <outline>
    <contour>
      <point x="67.0" y="-112.0" type="line"/>
      <point x="505.0" y="-112.0" type="line"/>
      <point x="505.0" y="-79.0" type="line"/>
      <point x="67.0" y="-79.0" type="line"/>
    </contour>
    <component base="dcroat"/>
  </outline>
</glyph>
<glyph name="manat" format="2">
  <advance width="671.0"/>
  <unicode hex="20BC"/>
  <outline>
    <contour>
      <point x="619.0" y="0.0" type="line"/>
      <point x="621.0" y="32.0" type="line"/>
      <point x="561.0" y="46.0" type="line"/>
      <point x="559.0" y="58.0"/>
      <point x="556.0" y="71.0"/>
      <point x="556.0" y="190.0" type="curve" smooth="yes"/>
      <point x="556.0" y="359.0" type="line" smooth="yes"/>
      <point x="556.0" y="517.0"/>
      <point x="464.0" y="597.0"/>
      <point x="339.0" y="597.0" type="curve" smooth="yes"/>
      <point x="224.0" y="597.0"/>
      <point x="116.0" y="529.0"/>
      <point x="116.0" y="339.0" type="curve" smooth="yes"/>
      <point x="116.0" y="208.0" type="line" smooth="yes"/>
      <point x="116.0" y="67.0"/>
      <point x="113.0" y="53.0"/>
      <point x="111.0" y="46.0" type="curve"/>
      <point x="51.0" y="32.0" type="line"/>
      <point x="53.0" y="0.0" type="line"/>
      <point x="239.0" y="0.0" type="line"/>
      <point x="241.0" y="32.0" type="line"/>
      <point x="171.0" y="46.0" type="line"/>
      <point x="170.0" y="53.0"/>
      <point x="166.0" y="67.0"/>
      <point x="166.0" y="208.0" type="curve" smooth="yes"/>
      <point x="166.0" y="340.0" type="line" smooth="yes"/>
      <point x="166.0" y="495.0"/>
      <point x="247.0" y="541.0"/>
      <point x="332.0" y="541.0" type="curve" smooth="yes"/>
      <point x="428.0" y="541.0"/>
      <point x="492.0" y="488.0"/>
      <point x="493.0" y="349.0" type="curve" smooth="yes"/>
      <point x="495.0" y="190.0" type="line" smooth="yes"/>
      <point x="496.0" y="71.0"/>
      <point x="491.0" y="51.0"/>
      <point x="489.0" y="46.0" type="curve"/>
      <point x="429.0" y="32.0" type="line"/>
      <point x="431.0" y="0.0" type="line"/>
    </contour>
    <contour>
      <point x="313.0" y="178.0" type="line"/>
      <point x="348.0" y="178.0" type="line"/>
      <point x="348.0" y="703.0" type="line"/>
      <point x="313.0" y="703.0" type="line"/>
    </contour>
  </outline>
</glyph>
<glyph name="notequal" format="2">
  <advance width="540.0"/>
  <unicode hex="2260"/>
  <outline>
    <contour>
      <point x="334.0" y="489.0" type="line"/>
      <point x="148.0" y="39.0" type="line"/>
      <point x="193.0" y="16.0" type="line"/>
      <point x="381.0" y="469.0" type="line"/>
    </contour>
    <contour>
      <point x="487.0" y="369.0" type="line"/>
      <point x="53.0" y="369.0" type="line"/>
      <point x="53.0" y="315.0" type="line"/>
      <point x="487.0" y="315.0" type="line"/>
    </contour>
    <contour>
      <point x="487.0" y="191.0" type="line"/>
      <point x="53.0" y="191.0" type="line"/>
      <point x="53.0" y="137.0" type="line"/>
      <point x="487.0" y="137.0" type="line"/>
    </contour>
  </outline>
</glyph>
<glyph name="reversedRotatedFloralHeartBullet" format="2">
  <advance width="950.0"/>
  <unicode hex="2619"/>
  <note>
uni2619
</note>
  <outline>
    <contour>
      <point x="385.0" y="33.0" type="curve" smooth="yes"/>
      <point x="516.0" y="33.0"/>
      <point x="605.0" y="89.0"/>
      <point x="605.0" y="170.0" type="curve" smooth="yes"/>
      <point x="605.0" y="218.0"/>
      <point x="565.0" y="252.0"/>
      <point x="512.0" y="251.0" type="curve"/>
      <point x="523.0" y="271.0"/>
      <point x="547.0" y="305.0"/>
      <point x="547.0" y="336.0" type="curve" smooth="yes"/>
      <point x="547.0" y="405.0"/>
      <point x="502.0" y="447.0"/>
      <point x="429.0" y="447.0" type="curve" smooth="yes"/>
      <point x="348.0" y="447.0"/>
      <point x="289.0" y="391.0"/>
      <point x="258.0" y="309.0" type="curve" smooth="yes"/>
      <point x="220.0" y="209.0"/>
      <point x="197.0" y="174.0"/>
      <point x="159.0" y="155.0" type="curve"/>
      <point x="216.0" y="154.0" type="line"/>
      <point x="247.0" y="178.0"/>
      <point x="265.0" y="207.0"/>
      <point x="288.0" y="270.0" type="curve" smooth="yes"/>
      <point x="320.0" y="358.0"/>
      <point x="362.0" y="406.0"/>
      <point x="425.0" y="406.0" type="curve" smooth="yes"/>
      <point x="473.0" y="406.0"/>
      <point x="502.0" y="379.0"/>
      <point x="502.0" y="334.0" type="curve" smooth="yes"/>
      <point x="502.0" y="274.0"/>
      <point x="461.0" y="237.0"/>
      <point x="358.0" y="205.0" type="curve" smooth="yes"/>
      <point x="247.0" y="170.0"/>
      <point x="208.0" y="161.0"/>
      <point x="174.0" y="161.0" type="curve" smooth="yes"/>
      <point x="131.0" y="161.0"/>
      <point x="95.0" y="186.0"/>
      <point x="95.0" y="227.0" type="curve" smooth="yes"/>
      <point x="95.0" y="270.0"/>
      <point x="131.0" y="296.0"/>
      <point x="207.0" y="293.0" type="curve"/>
      <point x="206.0" y="334.0"/>
      <point x="196.0" y="357.0"/>
      <point x="160.0" y="357.0" type="curve" smooth="yes"/>
      <point x="102.0" y="357.0"/>
      <point x="53.0" y="303.0"/>
      <point x="53.0" y="231.0" type="curve" smooth="yes"/>
      <point x="53.0" y="119.0"/>
      <point x="203.0" y="33.0"/>
    </contour>
    <contour>
      <point x="717.0" y="60.0" type="curve" smooth="yes"/>
      <point x="794.0" y="60.0"/>
      <point x="845.0" y="124.0"/>
      <point x="845.0" y="215.0" type="curve" smooth="yes"/>
      <point x="845.0" y="308.0"/>
      <point x="780.0" y="370.0"/>
      <point x="693.0" y="370.0" type="curve" smooth="yes"/>
      <point x="616.0" y="370.0"/>
      <point x="547.0" y="328.0"/>
      <point x="507.0" y="275.0" type="curve"/>
      <point x="501.0" y="222.0" type="line"/>
      <point x="553.0" y="287.0"/>
      <point x="616.0" y="332.0"/>
      <point x="685.0" y="332.0" type="curve" smooth="yes"/>
      <point x="754.0" y="332.0"/>
      <point x="803.0" y="285.0"/>
      <point x="803.0" y="216.0" type="curve" smooth="yes"/>
      <point x="803.0" y="156.0"/>
      <point x="772.0" y="117.0"/>
      <point x="724.0" y="117.0" type="curve" smooth="yes"/>
      <point x="704.0" y="117.0"/>
      <point x="680.0" y="127.0"/>
      <point x="659.0" y="145.0" type="curve"/>
      <point x="650.0" y="136.0"/>
      <point x="644.0" y="124.0"/>
      <point x="644.0" y="111.0" type="curve" smooth="yes"/>
      <point x="644.0" y="85.0"/>
      <point x="666.0" y="60.0"/>
    </contour>
    <contour>
      <point x="845.0" y="164.0" type="curve" smooth="yes"/>
      <point x="892.0" y="164.0"/>
      <point x="911.0" y="180.0"/>
      <point x="911.0" y="201.0" type="curve" smooth="yes"/>
      <point x="911.0" y="209.0"/>
      <point x="909.0" y="214.0"/>
      <point x="906.0" y="220.0" type="curve"/>
      <point x="880.0" y="213.0"/>
      <point x="856.0" y="210.0"/>
      <point x="834.0" y="210.0" type="curve" smooth="yes"/>
      <point x="760.0" y="210.0"/>
      <point x="718.0" y="241.0"/>
      <point x="718.0" y="297.0" type="curve" smooth="yes"/>
      <point x="718.0" y="373.0"/>
      <point x="814.0" y="437.0"/>
      <point x="814.0" y="532.0" type="curve" smooth="yes"/>
      <point x="814.0" y="572.0"/>
      <point x="794.0" y="592.0"/>
      <point x="762.0" y="592.0" type="curve" smooth="yes"/>
      <point x="748.0" y="592.0"/>
      <point x="732.0" y="586.0"/>
      <point x="724.0" y="578.0" type="curve"/>
      <point x="739.0" y="559.0"/>
      <point x="746.0" y="539.0"/>
      <point x="746.0" y="515.0" type="curve" smooth="yes"/>
      <point x="746.0" y="404.0"/>
      <point x="678.0" y="382.0"/>
      <point x="678.0" y="295.0" type="curve" smooth="yes"/>
      <point x="678.0" y="215.0"/>
      <point x="746.0" y="164.0"/>
    </contour>
  </outline>
</glyph>
<glyph name="fl" format="2">
  <advance width="533.0"/>
  <unicode hex="FB02"/>
  <note>
    f_l
  </note>
  <outline>
    <contour>
      <point x="236.0" y="0.0" type="line"/>
      <point x="238.0" y="34.0" type="line"/>
      <point x="156.0" y="45.0" type="line"/>
      <point x="155.0" y="70.0"/>
      <point x="154.0" y="129.0"/>
      <point x="154.0" y="183.0" type="curve"/>
      <point x="153.0" y="380.0" type="line"/>
      <point x="152.0" y="423.0" type="line"/>
      <point x="151.991795588071" y="485.8687093600445" type="line" smooth="yes"/>
      <point x="151.97338491853856" y="608.993886940222"/>
      <point x="215.73747877327946" y="661.6802894599984"/>
      <point x="260.7499077394307" y="661.6802894599984" type="curve" smooth="yes"/>
      <point x="280.04094872492135" y="661.6802894599984"/>
      <point x="302.9490598951975" y="646.8101120336805"/>
      <point x="313.29244809312763" y="595.4961444985688" type="curve"/>
      <point x="314.2569019624266" y="594.7876930663983"/>
      <point x="317.0428113599655" y="594.1616460107716"/>
      <point x="319.82872075750424" y="594.1616460107716" type="curve" smooth="yes"/>
      <point x="361.69295900727275" y="594.1616460107716"/>
      <point x="369.6639099700287" y="615.3323478585721"/>
      <point x="369.6639099700287" y="630.3323478585717" type="curve" smooth="yes"/>
      <point x="369.6639099700287" y="665.0576998018598"/>
      <point x="338.79463063762705" y="697.2816791339023"/>
      <point x="265.3914779514171" y="697.2816791339023" type="curve" smooth="yes"/>
      <point x="187.78195042306174" y="697.2816791339023"/>
      <point x="100.97608112733049" y="626.677342355023"/>
      <point x="100.991795588071" y="469.8687093600445" type="curve" smooth="yes"/>
      <point x="101.0" y="380.0" type="line"/>
      <point x="102.0" y="173.0" type="line"/>
      <point x="102.0" y="96.0"/>
      <point x="102.0" y="66.0"/>
      <point x="101.0" y="45.0" type="curve"/>
      <point x="39.0" y="31.0" type="line"/>
      <point x="41.0" y="0.0" type="line"/>
    </contour>
    <contour>
      <point x="29.0" y="380.0" type="line"/>
      <point x="266.0" y="380.0" type="line"/>
      <point x="266.0" y="423.0" type="line"/>
      <point x="183.0" y="423.0" type="line"/>
      <point x="101.0" y="423.0" type="line"/>
      <point x="29.0" y="406.0" type="line"/>
    </contour>
    <contour>
      <point x="313.0" y="0.0" type="line"/>
      <point x="499.0" y="0.0" type="line"/>
      <point x="501.0" y="32.0" type="line"/>
      <point x="436.0" y="45.0" type="line"/>
      <point x="434.0" y="68.0"/>
      <point x="431.0" y="137.0"/>
      <point x="431.0" y="209.0" type="curve"/>
      <point x="432.0" y="377.0" type="line" smooth="yes"/>
      <point x="432.0" y="519.0"/>
      <point x="434.0" y="594.0"/>
      <point x="436.0" y="680.0" type="curve"/>
      <point x="421.0" y="692.0" type="line"/>
      <point x="301.0" y="655.0" type="line"/>
      <point x="303.0" y="629.0" type="line"/>
      <point x="377.0" y="619.0" type="line"/>
      <point x="378.0" y="608.0"/>
      <point x="380.0" y="468.0"/>
      <point x="380.0" y="364.0" type="curve" smooth="yes"/>
      <point x="380.0" y="240.0" type="line" smooth="yes"/>
      <point x="380.0" y="108.0"/>
      <point x="379.0" y="68.0"/>
      <point x="376.0" y="45.0" type="curve"/>
      <point x="311.0" y="32.0" type="line"/>
    </contour>
  </outline>
</glyph>
<glyph name="brevebelowcomb.case" format="2">
  <anchor x="300.0" y="0.0" name="_bottom"/>
  <anchor x="300.0" y="-220.0" name="bottom"/>
  <outline>
    <contour>
      <point x="397.0" y="-75.0" type="line"/>
      <point x="389.0" y="-138.0"/>
      <point x="355.0" y="-173.0"/>
      <point x="302.0" y="-173.0" type="curve" smooth="yes"/>
      <point x="250.0" y="-173.0"/>
      <point x="216.0" y="-138.0"/>
      <point x="207.0" y="-75.0" type="curve"/>
      <point x="174.0" y="-86.0" type="line"/>
      <point x="181.0" y="-177.0"/>
      <point x="225.0" y="-227.0"/>
      <point x="301.0" y="-227.0" type="curve" smooth="yes"/>
      <point x="377.0" y="-227.0"/>
      <point x="420.0" y="-177.0"/>
      <point x="426.0" y="-86.0" type="curve"/>
    </contour>
  </outline>
</glyph>
<glyph name="brevecomb.case" format="2">
  <note>
uni0306.cap
</note>
  <anchor x="300.0" y="660.0" name="_top"/>
  <anchor x="300.0" y="882.0" name="top"/>
  <outline>
    <contour>
      <point x="427.0" y="851.0" type="line"/>
      <point x="416.0" y="801.0"/>
      <point x="371.0" y="771.0"/>
      <point x="300.0" y="771.0" type="curve" smooth="yes"/>
      <point x="234.0" y="771.0"/>
      <point x="188.0" y="801.0"/>
      <point x="177.0" y="851.0" type="curve"/>
      <point x="144.0" y="840.0" type="line"/>
      <point x="157.0" y="762.0"/>
      <point x="218.0" y="719.0"/>
      <point x="301.0" y="719.0" type="curve" smooth="yes"/>
      <point x="385.0" y="719.0"/>
      <point x="443.0" y="762.0"/>
      <point x="456.0" y="840.0" type="curve"/>
    </contour>
  </outline>
</glyph>
<glyph name="brevecomb_hookabovecomb.case" format="2">
  <anchor x="300.0" y="660.0" name="_top"/>
  <outline>
    <contour>
      <point x="304.0" y="973.0" type="curve" smooth="yes"/>
      <point x="252.0" y="973.0"/>
      <point x="217.0" y="949.0"/>
      <point x="217.0" y="926.0" type="curve" smooth="yes"/>
      <point x="217.0" y="912.0"/>
      <point x="226.0" y="902.0"/>
      <point x="240.0" y="902.0" type="curve" smooth="yes"/>
      <point x="254.0" y="902.0"/>
      <point x="258.0" y="907.0"/>
      <point x="276.0" y="923.0" type="curve" smooth="yes"/>
      <point x="308.0" y="952.0" type="line"/>
      <point x="275.0" y="947.0" type="line"/>
      <point x="304.0" y="954.0"/>
      <point x="333.0" y="952.0"/>
      <point x="333.0" y="915.0" type="curve" smooth="yes"/>
      <point x="333.0" y="887.0"/>
      <point x="287.0" y="878.0"/>
      <point x="287.0" y="824.0" type="curve" smooth="yes"/>
      <point x="287.0" y="809.0" type="line"/>
      <point x="314.0" y="809.0" type="line"/>
      <point x="314.0" y="870.0"/>
      <point x="390.0" y="854.0"/>
      <point x="390.0" y="912.0" type="curve" smooth="yes"/>
      <point x="390.0" y="950.0"/>
      <point x="354.0" y="973.0"/>
    </contour>
    <contour>
      <point x="301.0" y="719.0" type="curve" smooth="yes"/>
      <point x="385.0" y="719.0"/>
      <point x="443.0" y="762.0"/>
      <point x="456.0" y="840.0" type="curve"/>
      <point x="427.0" y="851.0" type="line"/>
      <point x="416.0" y="801.0"/>
      <point x="371.0" y="771.0"/>
      <point x="300.0" y="771.0" type="curve" smooth="yes"/>
      <point x="234.0" y="771.0"/>
      <point x="188.0" y="801.0"/>
      <point x="177.0" y="851.0" type="curve"/>
      <point x="144.0" y="840.0" type="line"/>
      <point x="157.0" y="762.0"/>
      <point x="218.0" y="719.0"/>
    </contour>
  </outline>
</glyph>
<glyph name="brevecomb_hookabovecomb" format="2">
  <anchor x="300.0" y="425.0" name="_top"/>
  <outline>
    <contour>
      <point x="397.0" y="657.0" type="line"/>
      <point x="389.0" y="595.0"/>
      <point x="355.0" y="551.0"/>
      <point x="302.0" y="551.0" type="curve" smooth="yes"/>
      <point x="250.0" y="551.0"/>
      <point x="216.0" y="595.0"/>
      <point x="207.0" y="657.0" type="curve"/>
      <point x="174.0" y="646.0" type="line"/>
      <point x="176.0" y="556.0"/>
      <point x="225.0" y="495.0"/>
      <point x="301.0" y="495.0" type="curve" smooth="yes"/>
      <point x="377.0" y="495.0"/>
      <point x="424.0" y="556.0"/>
      <point x="426.0" y="646.0" type="curve"/>
    </contour>
    <contour>
      <point x="304.0" y="790.0" type="curve" smooth="yes"/>
      <point x="252.0" y="790.0"/>
      <point x="217.0" y="766.0"/>
      <point x="217.0" y="743.0" type="curve" smooth="yes"/>
      <point x="217.0" y="729.0"/>
      <point x="226.0" y="719.0"/>
      <point x="240.0" y="719.0" type="curve" smooth="yes"/>
      <point x="254.0" y="719.0"/>
      <point x="258.0" y="724.0"/>
      <point x="276.0" y="740.0" type="curve" smooth="yes"/>
      <point x="308.0" y="769.0" type="line"/>
      <point x="275.0" y="764.0" type="line"/>
      <point x="304.0" y="771.0"/>
      <point x="333.0" y="769.0"/>
      <point x="333.0" y="732.0" type="curve" smooth="yes"/>
      <point x="333.0" y="703.0"/>
      <point x="287.0" y="688.0"/>
      <point x="287.0" y="626.0" type="curve" smooth="yes"/>
      <point x="287.0" y="609.0" type="line"/>
      <point x="314.0" y="609.0" type="line"/>
      <point x="314.0" y="679.0"/>
      <point x="390.0" y="661.0"/>
      <point x="390.0" y="727.0" type="curve" smooth="yes"/>
      <point x="390.0" y="765.0"/>
      <point x="354.0" y="790.0"/>
    </contour>
  </outline>
</glyph>
<glyph name="circumflexcomb_gravecomb.case" format="2">
  <anchor x="300.0" y="660.0" name="_top"/>
  <outline>
    <contour>
      <point x="413.0" y="822.0" type="line"/>
      <point x="444.0" y="833.0" type="line"/>
      <point x="372.0" y="976.0" type="line"/>
      <point x="310.0" y="953.0" type="line"/>
    </contour>
    <contour>
      <point x="460.0" y="734.0" type="line"/>
      <point x="329.0" y="843.0" type="line"/>
      <point x="271.0" y="843.0" type="line"/>
      <point x="140.0" y="734.0" type="line"/>
      <point x="168.0" y="713.0" type="line"/>
      <point x="329.0" y="808.0" type="line"/>
      <point x="271.0" y="808.0" type="line"/>
      <point x="432.0" y="713.0" type="line"/>
    </contour>
  </outline>
</glyph>
<glyph name="circumflexcomb_tildecomb" format="2">
  <anchor x="300.0" y="425.0" name="_top"/>
  <outline>
    <contour>
      <point x="201.0" y="482.0" type="line"/>
      <point x="329.0" y="610.0" type="line"/>
      <point x="271.0" y="610.0" type="line"/>
      <point x="399.0" y="482.0" type="line"/>
      <point x="430.0" y="492.0" type="line"/>
      <point x="329.0" y="635.0" type="line"/>
      <point x="271.0" y="635.0" type="line"/>
      <point x="170.0" y="492.0" type="line"/>
    </contour>
    <contour>
      <point x="362.0" y="672.0" type="curve" smooth="yes"/>
      <point x="399.0" y="672.0"/>
      <point x="430.0" y="710.0"/>
      <point x="447.0" y="766.0" type="curve"/>
      <point x="422.0" y="782.0" type="line"/>
      <point x="408.0" y="751.0"/>
      <point x="393.0" y="729.0"/>
      <point x="368.0" y="729.0" type="curve" smooth="yes"/>
      <point x="327.0" y="729.0"/>
      <point x="284.0" y="790.0"/>
      <point x="238.0" y="790.0" type="curve" smooth="yes"/>
      <point x="201.0" y="790.0"/>
      <point x="171.0" y="752.0"/>
      <point x="153.0" y="696.0" type="curve"/>
      <point x="178.0" y="681.0" type="line"/>
      <point x="193.0" y="711.0"/>
      <point x="205.0" y="733.0"/>
      <point x="233.0" y="733.0" type="curve" smooth="yes"/>
      <point x="271.0" y="733.0"/>
      <point x="316.0" y="672.0"/>
    </contour>
  </outline>
</glyph>
<glyph name="commaaccentcomb.alt" format="2">
  <note>
uni0326
</note>
  <anchor x="300.0" y="0.0" name="_bottom"/>
  <anchor x="300.0" y="-220.0" name="bottom"/>
  <outline>
    <contour>
      <point x="240.0" y="-283.0" type="line"/>
      <point x="298.0" y="-262.0"/>
      <point x="342.0" y="-218.0"/>
      <point x="342.0" y="-163.0" type="curve" smooth="yes"/>
      <point x="342.0" y="-131.0"/>
      <point x="326.0" y="-105.0"/>
      <point x="293.0" y="-105.0" type="curve" smooth="yes"/>
      <point x="274.0" y="-105.0"/>
      <point x="258.0" y="-119.0"/>
      <point x="258.0" y="-138.0" type="curve" smooth="yes"/>
      <point x="258.0" y="-173.0"/>
      <point x="292.0" y="-170.0"/>
      <point x="292.0" y="-202.0" type="curve" smooth="yes"/>
      <point x="292.0" y="-225.0"/>
      <point x="265.0" y="-249.0"/>
      <point x="229.0" y="-261.0" type="curve"/>
    </contour>
  </outline>
</glyph>
<glyph name="dieresisbelowcomb.case" format="2">
  <anchor x="300.0" y="0.0" name="_bottom"/>
  <anchor x="300.0" y="-220.0" name="bottom"/>
  <outline>
    <contour>
      <point x="228.0" y="-195.0" type="curve" smooth="yes"/>
      <point x="250.0" y="-195.0"/>
      <point x="269.0" y="-179.0"/>
      <point x="269.0" y="-153.0" type="curve" smooth="yes"/>
      <point x="269.0" y="-128.0"/>
      <point x="250.0" y="-111.0"/>
      <point x="228.0" y="-111.0" type="curve" smooth="yes"/>
      <point x="205.0" y="-111.0"/>
      <point x="185.0" y="-128.0"/>
      <point x="185.0" y="-153.0" type="curve" smooth="yes"/>
      <point x="185.0" y="-179.0"/>
      <point x="205.0" y="-195.0"/>
    </contour>
    <contour>
      <point x="374.0" y="-195.0" type="curve" smooth="yes"/>
      <point x="396.0" y="-195.0"/>
      <point x="415.0" y="-179.0"/>
      <point x="415.0" y="-153.0" type="curve" smooth="yes"/>
      <point x="415.0" y="-128.0"/>
      <point x="396.0" y="-111.0"/>
      <point x="374.0" y="-111.0" type="curve" smooth="yes"/>
      <point x="351.0" y="-111.0"/>
      <point x="331.0" y="-128.0"/>
      <point x="331.0" y="-153.0" type="curve" smooth="yes"/>
      <point x="331.0" y="-179.0"/>
      <point x="351.0" y="-195.0"/>
    </contour>
  </outline>
</glyph>
<glyph name="dieresiscomb_acutecomb.case" format="2">
  <anchor x="300.0" y="660.0" name="_top"/>
  <outline>
    <contour>
      <point x="315.0" y="825.0" type="line"/>
      <point x="417.0" y="953.0" type="line"/>
      <point x="355.0" y="976.0" type="line"/>
      <point x="285.0" y="836.0" type="line"/>
    </contour>
    <contour>
      <point x="208.0" y="741.0" type="curve" smooth="yes"/>
      <point x="230.0" y="741.0"/>
      <point x="249.0" y="757.0"/>
      <point x="249.0" y="783.0" type="curve" smooth="yes"/>
      <point x="249.0" y="808.0"/>
      <point x="230.0" y="825.0"/>
      <point x="208.0" y="825.0" type="curve" smooth="yes"/>
      <point x="185.0" y="825.0"/>
      <point x="165.0" y="808.0"/>
      <point x="165.0" y="783.0" type="curve" smooth="yes"/>
      <point x="165.0" y="757.0"/>
      <point x="185.0" y="741.0"/>
    </contour>
    <contour>
      <point x="394.0" y="741.0" type="curve" smooth="yes"/>
      <point x="416.0" y="741.0"/>
      <point x="435.0" y="757.0"/>
      <point x="435.0" y="783.0" type="curve" smooth="yes"/>
      <point x="435.0" y="808.0"/>
      <point x="416.0" y="825.0"/>
      <point x="394.0" y="825.0" type="curve" smooth="yes"/>
      <point x="371.0" y="825.0"/>
      <point x="351.0" y="808.0"/>
      <point x="351.0" y="783.0" type="curve" smooth="yes"/>
      <point x="351.0" y="757.0"/>
      <point x="371.0" y="741.0"/>
    </contour>
  </outline>
</glyph>
<glyph name="dieresiscomb_acutecomb" format="2">
  <anchor x="300.0" y="425.0" name="_top"/>
  <outline>
    <contour>
      <point x="228.0" y="536.0" type="curve" smooth="yes"/>
      <point x="250.0" y="536.0"/>
      <point x="270.0" y="552.0"/>
      <point x="270.0" y="579.0" type="curve" smooth="yes"/>
      <point x="270.0" y="604.0"/>
      <point x="250.0" y="622.0"/>
      <point x="228.0" y="622.0" type="curve" smooth="yes"/>
      <point x="205.0" y="622.0"/>
      <point x="184.0" y="604.0"/>
      <point x="184.0" y="579.0" type="curve" smooth="yes"/>
      <point x="184.0" y="552.0"/>
      <point x="205.0" y="536.0"/>
    </contour>
    <contour>
      <point x="374.0" y="536.0" type="curve" smooth="yes"/>
      <point x="397.0" y="536.0"/>
      <point x="416.0" y="552.0"/>
      <point x="416.0" y="579.0" type="curve" smooth="yes"/>
      <point x="416.0" y="604.0"/>
      <point x="397.0" y="622.0"/>
      <point x="374.0" y="622.0" type="curve" smooth="yes"/>
      <point x="351.0" y="622.0"/>
      <point x="330.0" y="604.0"/>
      <point x="330.0" y="579.0" type="curve" smooth="yes"/>
      <point x="330.0" y="552.0"/>
      <point x="351.0" y="536.0"/>
    </contour>
    <contour>
      <point x="315.0" y="644.0" type="line"/>
      <point x="417.0" y="767.0" type="line"/>
      <point x="355.0" y="790.0" type="line"/>
      <point x="285.0" y="654.0" type="line"/>
    </contour>
  </outline>
</glyph>
<glyph name="dotaccentcomb.case" format="2">
  <note>
uni0307.cap
</note>
  <anchor x="300.0" y="660.0" name="_top"/>
  <anchor x="300.0" y="865.0" name="top"/>
  <outline>
    <contour>
      <point x="301.0" y="741.0" type="curve" smooth="yes"/>
      <point x="322.0" y="741.0"/>
      <point x="343.0" y="757.0"/>
      <point x="343.0" y="783.0" type="curve" smooth="yes"/>
      <point x="343.0" y="807.0"/>
      <point x="322.0" y="825.0"/>
      <point x="301.0" y="825.0" type="curve" smooth="yes"/>
      <point x="279.0" y="825.0"/>
      <point x="257.0" y="807.0"/>
      <point x="257.0" y="783.0" type="curve" smooth="yes"/>
      <point x="257.0" y="757.0"/>
      <point x="279.0" y="741.0"/>
    </contour>
  </outline>
</glyph>
<glyph name="dotaccentcomb.i" format="2">
  <note>
uni0307
</note>
  <anchor x="300.0" y="425.0" name="_top"/>
  <anchor x="300.0" y="671.0" name="top"/>
  <outline>
    <contour>
      <point x="301.0" y="559.0" type="curve" smooth="yes"/>
      <point x="326.0" y="559.0"/>
      <point x="350.0" y="579.0"/>
      <point x="350.0" y="608.0" type="curve" smooth="yes"/>
      <point x="350.0" y="636.0"/>
      <point x="326.0" y="657.0"/>
      <point x="301.0" y="657.0" type="curve" smooth="yes"/>
      <point x="276.0" y="657.0"/>
      <point x="250.0" y="636.0"/>
      <point x="250.0" y="608.0" type="curve" smooth="yes"/>
      <point x="250.0" y="579.0"/>
      <point x="276.0" y="559.0"/>
    </contour>
  </outline>
</glyph>
<glyph name="eight.tf" format="2">
  <advance width="540.0"/>
  <note>
eight
</note>
  <outline>
    <contour>
      <point x="265.0" y="-9.0" type="curve" smooth="yes"/>
      <point x="382.0" y="-9.0"/>
      <point x="463.0" y="61.0"/>
      <point x="463.0" y="154.0" type="curve" smooth="yes"/>
      <point x="463.0" y="333.0"/>
      <point x="162.0" y="297.0"/>
      <point x="162.0" y="461.0" type="curve" smooth="yes"/>
      <point x="162.0" y="523.0"/>
      <point x="207.0" y="560.0"/>
      <point x="269.0" y="560.0" type="curve" smooth="yes"/>
      <point x="344.0" y="560.0"/>
      <point x="385.0" y="511.0"/>
      <point x="385.0" y="441.0" type="curve" smooth="yes"/>
      <point x="385.0" y="389.0"/>
      <point x="366.0" y="346.0"/>
      <point x="311.0" y="301.0" type="curve"/>
      <point x="337.0" y="288.0" type="line"/>
      <point x="403.0" y="324.0"/>
      <point x="443.0" y="382.0"/>
      <point x="443.0" y="452.0" type="curve" smooth="yes"/>
      <point x="443.0" y="533.0"/>
      <point x="368.0" y="596.0"/>
      <point x="276.0" y="596.0" type="curve" smooth="yes"/>
      <point x="181.0" y="596.0"/>
      <point x="101.0" y="531.0"/>
      <point x="101.0" y="446.0" type="curve" smooth="yes"/>
      <point x="101.0" y="255.0"/>
      <point x="405.0" y="297.0"/>
      <point x="405.0" y="133.0" type="curve" smooth="yes"/>
      <point x="405.0" y="69.0"/>
      <point x="357.0" y="31.0"/>
      <point x="279.0" y="31.0" type="curve" smooth="yes"/>
      <point x="186.0" y="31.0"/>
      <point x="139.0" y="89.0"/>
      <point x="139.0" y="151.0" type="curve" smooth="yes"/>
      <point x="139.0" y="204.0"/>
      <point x="173.0" y="254.0"/>
      <point x="260.0" y="289.0" type="curve"/>
      <point x="222.0" y="301.0" type="line"/>
      <point x="133.0" y="277.0"/>
      <point x="79.0" y="222.0"/>
      <point x="79.0" y="143.0" type="curve" smooth="yes"/>
      <point x="79.0" y="56.0"/>
      <point x="153.0" y="-9.0"/>
    </contour>
  </outline>
</glyph>
<glyph name="five.dnom" format="2">
  <advance width="400.0"/>
  <note>
uni2085
</note>
  <outline>
    <contour>
      <point x="171.0" y="-6.0" type="curve" smooth="yes"/>
      <point x="254.0" y="-6.0"/>
      <point x="340.0" y="44.0"/>
      <point x="340.0" y="118.0" type="curve" smooth="yes"/>
      <point x="340.0" y="190.0"/>
      <point x="279.0" y="229.0"/>
      <point x="125.0" y="245.0" type="curve"/>
      <point x="142.0" y="218.0" type="line"/>
      <point x="156.0" y="329.0" type="line"/>
      <point x="312.0" y="329.0" type="line"/>
      <point x="319.0" y="388.0" type="line"/>
      <point x="128.0" y="388.0" type="line"/>
      <point x="102.0" y="188.0" type="line"/>
      <point x="237.0" y="176.0"/>
      <point x="282.0" y="154.0"/>
      <point x="282.0" y="107.0" type="curve" smooth="yes"/>
      <point x="282.0" y="56.0"/>
      <point x="227.0" y="20.0"/>
      <point x="155.0" y="28.0" type="curve"/>
      <point x="181.0" y="20.0" type="line"/>
      <point x="137.0" y="56.0" type="line" smooth="yes"/>
      <point x="121.0" y="70.0"/>
      <point x="110.0" y="75.0"/>
      <point x="97.0" y="75.0" type="curve" smooth="yes"/>
      <point x="82.0" y="75.0"/>
      <point x="69.0" y="64.0"/>
      <point x="69.0" y="46.0" type="curve" smooth="yes"/>
      <point x="69.0" y="16.0"/>
      <point x="112.0" y="-6.0"/>
    </contour>
  </outline>
</glyph>
<glyph name="five.tf" format="2">
  <advance width="540.0"/>
  <note>
    five
  </note>
  <outline>
    <contour>
      <point x="219.41819003309365" y="-9.0" type="curve" smooth="yes"/>
      <point x="369.7075228047047" y="-9.0"/>
      <point x="456.0" y="69.12599951671746"/>
      <point x="456.0" y="183.6351817502366" type="curve" smooth="yes"/>
      <point x="456.0" y="304.1600215280523"/>
      <point x="353.2261873379905" y="362.325006773282"/>
      <point x="163.29970490458822" y="362.325006773282" type="curve"/>
      <point x="179.24826904055453" y="523.0" type="line"/>
      <point x="417.0" y="523.0" type="line"/>
      <point x="422.0" y="587.0" type="line"/>
      <point x="142.09099901088098" y="587.0" type="line"/>
      <point x="114.6310437810289" y="301.785940497635" type="line"/>
      <point x="262.0614757699575" y="301.785940497635"/>
      <point x="392.40141030710424" y="278.5199463995432"/>
      <point x="392.40141030710424" y="154.57642993792615" type="curve"/>
      <point x="392.40141030710424" y="73.87416157755251"/>
      <point x="319.71665587997154" y="27.30394852088466"/>
      <point x="242.85635784152169" y="27.30394852088466" type="curve" smooth="yes"/>
      <point x="217.43861504927372" y="27.30394852088466"/>
      <point x="194.7884789263901" y="30.072509696441102"/>
      <point x="190.01802932501755" y="34.365914337676486" type="curve"/>
      <point x="181.2589538069417" y="45.89450087432715"/>
      <point x="159.4375490823204" y="89.61882520971244"/>
      <point x="156.86911886395092" y="94.81392753138653" type="curve"/>
      <point x="150.06045003949907" y="98.96678377464514"/>
      <point x="140.283729641661" y="102.14403561970494"/>
      <point x="132.4480047156785" y="102.14403561970494" type="curve" smooth="yes"/>
      <point x="111.25640036440586" y="102.14403561970494"/>
      <point x="89.68338601341839" y="85.38577670978475"/>
      <point x="89.68338601341839" y="59.01924707100261" type="curve" smooth="yes"/>
      <point x="89.68338601341839" y="15.88193534766583"/>
      <point x="140.23519068029427" y="-9.0"/>
    </contour>
  </outline>
</glyph>
<glyph name="five.tosf" format="2">
  <advance width="540.0"/>
  <note>
    five.onum
  </note>
  <outline>
    <contour>
      <point x="219.90151181296733" y="-228.09848818703267" type="curve" smooth="yes"/>
      <point x="357.9015118129673" y="-228.09848818703267"/>
      <point x="462.9015118129673" y="-149.1120003331721"/>
      <point x="462.9015118129673" y="-45.11200033317209" type="curve" smooth="yes"/>
      <point x="462.9015118129673" y="64.6485676668279"/>
      <point x="384.8775756776945" y="145.66866020825114"/>
      <point x="165.80466990522996" y="171.73657095808107" type="curve"/>
      <point x="185.90151181296733" y="356.9015118129673" type="line"/>
      <point x="432.9015118129673" y="356.9015118129673" type="line"/>
      <point x="439.9015118129673" y="424.9015118129673" type="line"/>
      <point x="146.90151181296733" y="424.9015118129673" type="line"/>
      <point x="113.90151181296733" y="116.90151181296733" type="line"/>
      <point x="343.907515871447" y="91.04191379992108"/>
      <point x="398.9015118129673" y="29.436474490358933"/>
      <point x="398.9015118129673" y="-60.11200033317209" type="curve" smooth="yes"/>
      <point x="398.9015118129673" y="-152.1120003331721"/>
      <point x="309.81850533807824" y="-192.96518562374445"/>
      <point x="221.3520073916327" y="-192.96518562374445" type="curve" smooth="yes"/>
      <point x="204.11121690354554" y="-192.96518562374445"/>
      <point x="184.17884669157593" y="-190.46040253491105"/>
      <point x="176.4420907161591" y="-186.28408696181646" type="curve"/>
      <point x="164.14975547005088" y="-165.9553505402123"/>
      <point x="153.56272604598712" y="-147.32217875386004"/>
      <point x="142.85875884760458" y="-125.27075642039813" type="curve"/>
      <point x="136.55367835653897" y="-121.36427365102327"/>
      <point x="127.25145252918333" y="-118.19350118516718"/>
      <point x="116.57972686972721" y="-118.19350118516718" type="curve" smooth="yes"/>
      <point x="92.1872110766842" y="-118.19350118516718"/>
      <point x="76.22127118098524" y="-140.54858342673174"/>
      <point x="76.22127118098524" y="-160.54858342673174" type="curve" smooth="yes"/>
      <point x="76.22127118098524" y="-204.00293218817728"/>
      <point x="129.90151181296733" y="-228.09848818703267"/>
    </contour>
  </outline>
</glyph>
<glyph name="jdotless.alt" format="2">
  <advance width="239.0"/>
  <note>
    j
  </note>
  <anchor x="125.0" y="-220.0" name="bottom"/>
  <anchor x="128.0" y="425.0" name="top"/>
  <outline>
    <contour>
      <point x="13.0" y="-231.0" type="line"/>
      <point x="124.0" y="-173.0"/>
      <point x="155.0" y="-106.0"/>
      <point x="155.0" y="-30.0" type="curve"/>
      <point x="153.0" y="296.0" type="line"/>
      <point x="153.0" y="353.0"/>
      <point x="155.0" y="386.0"/>
      <point x="158.0" y="419.0" type="curve"/>
      <point x="149.0" y="431.0" type="line"/>
      <point x="28.0" y="399.0" type="line"/>
      <point x="28.0" y="371.0" type="line"/>
      <point x="95.0" y="359.0" type="line"/>
      <point x="96.0" y="353.0"/>
      <point x="102.0" y="309.0"/>
      <point x="102.0" y="249.0" type="curve"/>
      <point x="101.0" y="-20.0" type="line"/>
      <point x="101.0" y="-115.0"/>
      <point x="68.0" y="-163.0"/>
      <point x="-3.0" y="-203.0" type="curve"/>
    </contour>
  </outline>
</glyph>
<glyph name="macroncomb.case" format="2">
  <note>
uni0304.cap
</note>
  <anchor x="300.0" y="660.0" name="_top"/>
  <anchor x="300.0" y="882.0" name="top"/>
  <outline>
    <contour>
      <point x="162.0" y="805.0" type="line"/>
      <point x="162.0" y="758.0" type="line"/>
      <point x="438.0" y="758.0" type="line"/>
      <point x="438.0" y="805.0" type="line"/>
    </contour>
  </outline>
</glyph>
<glyph name="nine.osf" format="2">
  <advance width="520.0"/>
  <note>
nine.onum
</note>
  <outline>
    <contour>
      <point x="413.0" y="147.0" type="curve"/>
      <point x="398.0" y="175.0" type="line"/>
      <point x="366.0" y="129.0"/>
      <point x="321.0" y="101.0"/>
      <point x="257.0" y="101.0" type="curve" smooth="yes"/>
      <point x="181.0" y="101.0"/>
      <point x="123.0" y="160.0"/>
      <point x="123.0" y="242.0" type="curve" smooth="yes"/>
      <point x="123.0" y="331.0"/>
      <point x="174.0" y="391.0"/>
      <point x="249.0" y="391.0" type="curve" smooth="yes"/>
      <point x="338.0" y="391.0"/>
      <point x="389.0" y="314.0"/>
      <point x="389.0" y="180.0" type="curve" smooth="yes"/>
      <point x="389.0" y="-8.0"/>
      <point x="286.0" y="-139.0"/>
      <point x="95.0" y="-199.0" type="curve"/>
      <point x="107.0" y="-236.0" type="line"/>
      <point x="317.0" y="-180.0"/>
      <point x="455.0" y="-24.0"/>
      <point x="455.0" y="189.0" type="curve" smooth="yes"/>
      <point x="455.0" y="336.0"/>
      <point x="376.0" y="431.0"/>
      <point x="255.0" y="431.0" type="curve" smooth="yes"/>
      <point x="160.0" y="431.0"/>
      <point x="60.0" y="350.0"/>
      <point x="60.0" y="226.0" type="curve" smooth="yes"/>
      <point x="60.0" y="123.0"/>
      <point x="133.0" y="47.0"/>
      <point x="235.0" y="47.0" type="curve" smooth="yes"/>
      <point x="308.0" y="47.0"/>
      <point x="370.0" y="88.0"/>
    </contour>
  </outline>
</glyph>
<glyph name="ringcomb.case" format="2">
  <note>
uni030A.cap
</note>
  <anchor x="300.0" y="660.0" name="_top"/>
  <anchor x="300.0" y="875.0" name="top"/>
  <outline>
    <contour>
      <point x="301.0" y="721.0" type="curve" smooth="yes"/>
      <point x="353.0" y="721.0"/>
      <point x="394.0" y="761.0"/>
      <point x="394.0" y="812.0" type="curve" smooth="yes"/>
      <point x="394.0" y="864.0"/>
      <point x="354.0" y="903.0"/>
      <point x="301.0" y="903.0" type="curve" smooth="yes"/>
      <point x="248.0" y="903.0"/>
      <point x="206.0" y="863.0"/>
      <point x="206.0" y="812.0" type="curve" smooth="yes"/>
      <point x="206.0" y="761.0"/>
      <point x="248.0" y="721.0"/>
    </contour>
    <contour>
      <point x="302.0" y="749.0" type="curve" smooth="yes"/>
      <point x="267.0" y="749.0"/>
      <point x="241.0" y="777.0"/>
      <point x="241.0" y="813.0" type="curve" smooth="yes"/>
      <point x="241.0" y="851.0"/>
      <point x="267.0" y="877.0"/>
      <point x="302.0" y="877.0" type="curve" smooth="yes"/>
      <point x="337.0" y="877.0"/>
      <point x="361.0" y="852.0"/>
      <point x="361.0" y="813.0" type="curve" smooth="yes"/>
      <point x="361.0" y="774.0"/>
      <point x="337.0" y="749.0"/>
    </contour>
  </outline>
</glyph>
<glyph name="ringcomb_acutecomb" format="2">
  <anchor x="300.0" y="425.0" name="_top"/>
  <outline>
    <contour>
      <point x="301.0" y="497.0" type="curve" smooth="yes"/>
      <point x="353.0" y="497.0"/>
      <point x="394.0" y="538.0"/>
      <point x="394.0" y="589.0" type="curve" smooth="yes"/>
      <point x="394.0" y="641.0"/>
      <point x="354.0" y="680.0"/>
      <point x="301.0" y="680.0" type="curve" smooth="yes"/>
      <point x="248.0" y="680.0"/>
      <point x="206.0" y="640.0"/>
      <point x="206.0" y="589.0" type="curve" smooth="yes"/>
      <point x="206.0" y="537.0"/>
      <point x="248.0" y="497.0"/>
    </contour>
    <contour>
      <point x="302.0" y="526.0" type="curve" smooth="yes"/>
      <point x="267.0" y="526.0"/>
      <point x="241.0" y="553.0"/>
      <point x="241.0" y="590.0" type="curve" smooth="yes"/>
      <point x="241.0" y="627.0"/>
      <point x="267.0" y="653.0"/>
      <point x="302.0" y="653.0" type="curve" smooth="yes"/>
      <point x="337.0" y="653.0"/>
      <point x="361.0" y="628.0"/>
      <point x="361.0" y="590.0" type="curve" smooth="yes"/>
      <point x="361.0" y="551.0"/>
      <point x="337.0" y="526.0"/>
    </contour>
    <contour>
      <point x="364.0" y="634.0" type="line"/>
      <point x="469.0" y="767.0" type="line"/>
      <point x="406.0" y="790.0" type="line"/>
      <point x="333.0" y="644.0" type="line"/>
    </contour>
  </outline>
</glyph>
<glyph name="seven.tf" format="2">
  <advance width="540.0"/>
  <note>
seven
</note>
  <outline>
    <contour>
      <point x="253.0" y="0.0" type="line"/>
      <point x="492.0" y="561.0" type="line"/>
      <point x="489.0" y="588.0" type="line"/>
      <point x="464.0" y="588.0"/>
      <point x="437.0" y="587.0"/>
      <point x="413.0" y="587.0" type="curve" smooth="yes"/>
      <point x="167.0" y="587.0" type="line" smooth="yes"/>
      <point x="121.0" y="587.0"/>
      <point x="112.0" y="588.0"/>
      <point x="82.0" y="591.0" type="curve"/>
      <point x="58.0" y="437.0" type="line"/>
      <point x="90.0" y="432.0" type="line"/>
      <point x="128.0" y="520.0" type="line"/>
      <point x="129.0" y="522.0"/>
      <point x="141.0" y="523.0"/>
      <point x="155.0" y="523.0" type="curve" smooth="yes"/>
      <point x="446.0" y="523.0" type="line"/>
      <point x="445.0" y="555.0" type="line"/>
      <point x="189.0" y="25.0" type="line"/>
      <point x="189.0" y="0.0" type="line"/>
    </contour>
  </outline>
</glyph>
<glyph name="seven.tosf" format="2">
  <advance width="540.0"/>
  <note>
seven.onum
</note>
  <outline>
    <contour>
      <point x="246.0" y="-220.0" type="line"/>
      <point x="503.0" y="397.0" type="line"/>
      <point x="499.0" y="426.0" type="line"/>
      <point x="471.0" y="426.0"/>
      <point x="441.0" y="425.0"/>
      <point x="414.0" y="425.0" type="curve" smooth="yes"/>
      <point x="162.0" y="425.0" type="line" smooth="yes"/>
      <point x="111.0" y="425.0"/>
      <point x="100.0" y="426.0"/>
      <point x="67.0" y="430.0" type="curve"/>
      <point x="48.0" y="265.0" type="line"/>
      <point x="82.0" y="261.0" type="line"/>
      <point x="115.0" y="360.0" type="line"/>
      <point x="119.0" y="362.0"/>
      <point x="130.0" y="363.0"/>
      <point x="146.0" y="363.0" type="curve" smooth="yes"/>
      <point x="452.0" y="363.0" type="line"/>
      <point x="456.0" y="391.0" type="line"/>
      <point x="182.0" y="-192.0" type="line"/>
      <point x="182.0" y="-220.0" type="line"/>
    </contour>
  </outline>
</glyph>
<glyph name="six.numr" format="2">
  <advance width="400.0"/>
  <note>
uni2086
</note>
  <outline>
    <contour>
      <point x="115.0" y="365.0" type="curve"/>
      <point x="113.0" y="336.0" type="line"/>
      <point x="135.0" y="364.0"/>
      <point x="166.0" y="382.0"/>
      <point x="203.0" y="382.0" type="curve" smooth="yes"/>
      <point x="251.0" y="382.0"/>
      <point x="281.0" y="354.0"/>
      <point x="281.0" y="307.0" type="curve" smooth="yes"/>
      <point x="281.0" y="257.0"/>
      <point x="250.0" y="228.0"/>
      <point x="208.0" y="228.0" type="curve" smooth="yes"/>
      <point x="159.0" y="228.0"/>
      <point x="123.0" y="271.0"/>
      <point x="123.0" y="341.0" type="curve" smooth="yes"/>
      <point x="123.0" y="465.0"/>
      <point x="192.0" y="547.0"/>
      <point x="321.0" y="566.0" type="curve"/>
      <point x="306.0" y="599.0" type="line"/>
      <point x="159.0" y="585.0"/>
      <point x="57.0" y="477.0"/>
      <point x="57.0" y="343.0" type="curve" smooth="yes"/>
      <point x="57.0" y="254.0"/>
      <point x="120.0" y="193.0"/>
      <point x="203.0" y="193.0" type="curve" smooth="yes"/>
      <point x="284.0" y="193.0"/>
      <point x="343.0" y="251.0"/>
      <point x="343.0" y="321.0" type="curve" smooth="yes"/>
      <point x="343.0" y="380.0"/>
      <point x="297.0" y="432.0"/>
      <point x="222.0" y="432.0" type="curve" smooth="yes"/>
      <point x="182.0" y="432.0"/>
      <point x="144.0" y="406.0"/>
    </contour>
  </outline>
</glyph>
<glyph name="three.numr" format="2">
  <advance width="400.0"/>
  <note>
uni2083
</note>
  <outline>
    <contour>
      <point x="211.0" y="414.0" type="curve"/>
      <point x="203.0" y="404.0" type="line"/>
      <point x="276.0" y="424.0"/>
      <point x="314.0" y="462.0"/>
      <point x="314.0" y="507.0" type="curve" smooth="yes"/>
      <point x="314.0" y="559.0"/>
      <point x="272.0" y="593.0"/>
      <point x="204.0" y="593.0" type="curve" smooth="yes"/>
      <point x="141.0" y="593.0"/>
      <point x="91.0" y="560.0"/>
      <point x="68.0" y="517.0" type="curve"/>
      <point x="88.0" y="500.0" type="line"/>
      <point x="110.0" y="522.0"/>
      <point x="139.0" y="540.0"/>
      <point x="183.0" y="540.0" type="curve" smooth="yes"/>
      <point x="223.0" y="540.0"/>
      <point x="253.0" y="521.0"/>
      <point x="253.0" y="486.0" type="curve" smooth="yes"/>
      <point x="253.0" y="443.0"/>
      <point x="217.0" y="416.0"/>
      <point x="134.0" y="411.0" type="curve"/>
      <point x="139.0" y="377.0" type="line"/>
      <point x="157.0" y="380.0"/>
      <point x="171.0" y="381.0"/>
      <point x="183.0" y="381.0" type="curve" smooth="yes"/>
      <point x="244.0" y="381.0"/>
      <point x="282.0" y="352.0"/>
      <point x="282.0" y="306.0" type="curve" smooth="yes"/>
      <point x="282.0" y="255.0"/>
      <point x="227.0" y="219.0"/>
      <point x="155.0" y="227.0" type="curve"/>
      <point x="181.0" y="219.0" type="line"/>
      <point x="137.0" y="255.0" type="line" smooth="yes"/>
      <point x="119.0" y="270.0"/>
      <point x="112.0" y="274.0"/>
      <point x="97.0" y="274.0" type="curve" smooth="yes"/>
      <point x="81.0" y="274.0"/>
      <point x="69.0" y="262.0"/>
      <point x="69.0" y="245.0" type="curve" smooth="yes"/>
      <point x="69.0" y="215.0"/>
      <point x="112.0" y="193.0"/>
      <point x="171.0" y="193.0" type="curve" smooth="yes"/>
      <point x="263.0" y="193.0"/>
      <point x="340.0" y="249.0"/>
      <point x="340.0" y="316.0" type="curve" smooth="yes"/>
      <point x="340.0" y="373.0"/>
      <point x="291.0" y="411.0"/>
    </contour>
  </outline>
</glyph>
<glyph name="three.osf" format="2">
  <advance width="435.0"/>
  <note>
    three.onum
  </note>
  <outline>
    <contour>
      <point x="164.0" y="-228.0" type="curve" smooth="yes"/>
      <point x="272.0" y="-228.0"/>
      <point x="386.0" y="-143.0"/>
      <point x="386.0" y="-20.0" type="curve" smooth="yes"/>
      <point x="386.0" y="80.0"/>
      <point x="326.0" y="138.0"/>
      <point x="236.0" y="143.0" type="curve"/>
      <point x="231.0" y="135.0" type="line"/>
      <point x="320.0" y="177.0"/>
      <point x="351.0" y="246.0"/>
      <point x="351.0" y="301.0" type="curve" smooth="yes"/>
      <point x="351.0" y="383.0"/>
      <point x="295.0" y="433.0"/>
      <point x="203.0" y="433.0" type="curve" smooth="yes"/>
      <point x="131.0" y="433.0"/>
      <point x="72.0" y="397.0"/>
      <point x="41.0" y="338.0" type="curve"/>
      <point x="64.0" y="318.0" type="line"/>
      <point x="98.0" y="361.0"/>
      <point x="140.0" y="384.0"/>
      <point x="191.0" y="384.0" type="curve" smooth="yes"/>
      <point x="251.0" y="384.0"/>
      <point x="288.0" y="352.0"/>
      <point x="288.0" y="291.0" type="curve" smooth="yes"/>
      <point x="288.0" y="225.0"/>
      <point x="240.0" y="151.0"/>
      <point x="136.0" y="136.0" type="curve"/>
      <point x="141.0" y="97.0" type="line"/>
      <point x="166.0" y="102.0"/>
      <point x="185.0" y="103.0"/>
      <point x="202.0" y="103.0" type="curve" smooth="yes"/>
      <point x="277.0" y="103.0"/>
      <point x="323.0" y="48.0"/>
      <point x="323.0" y="-30.0" type="curve" smooth="yes"/>
      <point x="323.0" y="-142.0"/>
      <point x="247.23709004550437" y="-192.420963539367"/>
      <point x="172.17041053928165" y="-192.420963539367" type="curve" smooth="yes"/>
      <point x="167.271229964913" y="-192.420963539367"/>
      <point x="142.5522154449609" y="-189.24681527315238"/>
      <point x="128.5773366051967" y="-180.35371055693895" type="curve"/>
      <point x="119.26467183402951" y="-167.85513415353034"/>
      <point x="101.38598927422572" y="-134.3393437823504"/>
      <point x="96.81624833300543" y="-124.4541951978822" type="curve"/>
      <point x="91.21273669776883" y="-120.3789140086194"/>
      <point x="78.93069485735276" y="-117.46663492149946"/>
      <point x="72.30836292480058" y="-117.46663492149946" type="curve" smooth="yes"/>
      <point x="50.65680004408728" y="-117.46663492149946"/>
      <point x="30.75318472684762" y="-133.7943737412877"/>
      <point x="30.75318472684762" y="-160.0266140627366" type="curve" smooth="yes"/>
      <point x="30.75318472684762" y="-200.11616548185793"/>
      <point x="83.77701924762391" y="-228.0"/>
    </contour>
  </outline>
</glyph>
<glyph name="zero.tf" format="2">
  <advance width="540.0"/>
  <note>
zero
</note>
  <outline>
    <contour>
      <point x="275.0" y="-9.0" type="curve" smooth="yes"/>
      <point x="396.0" y="-9.0"/>
      <point x="488.0" y="119.0"/>
      <point x="488.0" y="296.0" type="curve" smooth="yes"/>
      <point x="488.0" y="478.0"/>
      <point x="401.0" y="596.0"/>
      <point x="277.0" y="596.0" type="curve" smooth="yes"/>
      <point x="149.0" y="596.0"/>
      <point x="52.0" y="472.0"/>
      <point x="52.0" y="293.0" type="curve" smooth="yes"/>
      <point x="52.0" y="109.0"/>
      <point x="139.0" y="-9.0"/>
    </contour>
    <contour>
      <point x="277.0" y="31.0" type="curve" smooth="yes"/>
      <point x="183.0" y="31.0"/>
      <point x="122.0" y="135.0"/>
      <point x="122.0" y="307.0" type="curve" smooth="yes"/>
      <point x="122.0" y="467.0"/>
      <point x="175.0" y="556.0"/>
      <point x="268.0" y="556.0" type="curve" smooth="yes"/>
      <point x="360.0" y="556.0"/>
      <point x="417.0" y="453.0"/>
      <point x="417.0" y="273.0" type="curve" smooth="yes"/>
      <point x="417.0" y="126.0"/>
      <point x="360.0" y="31.0"/>
    </contour>
  </outline>
</glyph>
